<mxfile host="Electron" agent="Mozilla/5.0 (Windows NT 10.0; Win64; x64) AppleWebKit/537.36 (KHTML, like Gecko) draw.io/26.0.16 Chrome/132.0.6834.196 Electron/34.2.0 Safari/537.36" version="26.0.16">
  <diagram name="PÃ¡gina-1" id="fdRy8exkDGa6AhzQUCQz">
    <mxGraphModel dx="2103" dy="1823" grid="1" gridSize="10" guides="1" tooltips="1" connect="1" arrows="1" fold="1" page="1" pageScale="1" pageWidth="827" pageHeight="1169" math="0" shadow="0">
      <root>
        <mxCell id="0" />
        <mxCell id="1" parent="0" />
        <mxCell id="9Flou8zlX_ZpzNd3vt44-8" style="edgeStyle=orthogonalEdgeStyle;rounded=0;orthogonalLoop=1;jettySize=auto;html=1;" parent="1" source="9Flou8zlX_ZpzNd3vt44-1" target="9Flou8zlX_ZpzNd3vt44-7" edge="1">
          <mxGeometry relative="1" as="geometry" />
        </mxCell>
        <mxCell id="9Flou8zlX_ZpzNd3vt44-9" style="edgeStyle=orthogonalEdgeStyle;rounded=0;orthogonalLoop=1;jettySize=auto;html=1;entryX=0.5;entryY=1;entryDx=0;entryDy=0;" parent="1" source="9Flou8zlX_ZpzNd3vt44-1" target="9Flou8zlX_ZpzNd3vt44-5" edge="1">
          <mxGeometry relative="1" as="geometry" />
        </mxCell>
        <mxCell id="9Flou8zlX_ZpzNd3vt44-10" style="edgeStyle=orthogonalEdgeStyle;rounded=0;orthogonalLoop=1;jettySize=auto;html=1;entryX=1;entryY=1;entryDx=0;entryDy=0;" parent="1" source="9Flou8zlX_ZpzNd3vt44-1" target="9Flou8zlX_ZpzNd3vt44-6" edge="1">
          <mxGeometry relative="1" as="geometry" />
        </mxCell>
        <mxCell id="9Flou8zlX_ZpzNd3vt44-11" style="edgeStyle=orthogonalEdgeStyle;rounded=0;orthogonalLoop=1;jettySize=auto;html=1;entryX=1;entryY=0.5;entryDx=0;entryDy=0;" parent="1" source="9Flou8zlX_ZpzNd3vt44-1" target="9Flou8zlX_ZpzNd3vt44-2" edge="1">
          <mxGeometry relative="1" as="geometry" />
        </mxCell>
        <mxCell id="9Flou8zlX_ZpzNd3vt44-12" style="edgeStyle=orthogonalEdgeStyle;rounded=0;orthogonalLoop=1;jettySize=auto;html=1;entryX=1;entryY=0.5;entryDx=0;entryDy=0;" parent="1" source="9Flou8zlX_ZpzNd3vt44-1" target="9Flou8zlX_ZpzNd3vt44-3" edge="1">
          <mxGeometry relative="1" as="geometry" />
        </mxCell>
        <mxCell id="rqDRrIek9EEaIk5kHPsR-7" style="edgeStyle=orthogonalEdgeStyle;rounded=0;orthogonalLoop=1;jettySize=auto;html=1;entryX=1;entryY=0.5;entryDx=0;entryDy=0;" parent="1" source="9Flou8zlX_ZpzNd3vt44-1" target="9Flou8zlX_ZpzNd3vt44-4" edge="1">
          <mxGeometry relative="1" as="geometry" />
        </mxCell>
        <mxCell id="rqDRrIek9EEaIk5kHPsR-9" style="edgeStyle=orthogonalEdgeStyle;rounded=0;orthogonalLoop=1;jettySize=auto;html=1;entryX=0;entryY=1;entryDx=0;entryDy=0;" parent="1" source="9Flou8zlX_ZpzNd3vt44-1" target="rqDRrIek9EEaIk5kHPsR-1" edge="1">
          <mxGeometry relative="1" as="geometry">
            <Array as="points">
              <mxPoint x="470" y="220" />
              <mxPoint x="470" y="59" />
            </Array>
          </mxGeometry>
        </mxCell>
        <mxCell id="rqDRrIek9EEaIk5kHPsR-10" style="edgeStyle=orthogonalEdgeStyle;rounded=0;orthogonalLoop=1;jettySize=auto;html=1;entryX=0;entryY=0.5;entryDx=0;entryDy=0;" parent="1" source="9Flou8zlX_ZpzNd3vt44-1" target="rqDRrIek9EEaIk5kHPsR-2" edge="1">
          <mxGeometry relative="1" as="geometry" />
        </mxCell>
        <mxCell id="rqDRrIek9EEaIk5kHPsR-11" style="edgeStyle=orthogonalEdgeStyle;rounded=0;orthogonalLoop=1;jettySize=auto;html=1;entryX=0;entryY=0.5;entryDx=0;entryDy=0;" parent="1" source="9Flou8zlX_ZpzNd3vt44-1" target="rqDRrIek9EEaIk5kHPsR-5" edge="1">
          <mxGeometry relative="1" as="geometry" />
        </mxCell>
        <mxCell id="rqDRrIek9EEaIk5kHPsR-12" style="edgeStyle=orthogonalEdgeStyle;rounded=0;orthogonalLoop=1;jettySize=auto;html=1;entryX=0;entryY=0.5;entryDx=0;entryDy=0;" parent="1" source="9Flou8zlX_ZpzNd3vt44-1" target="rqDRrIek9EEaIk5kHPsR-6" edge="1">
          <mxGeometry relative="1" as="geometry" />
        </mxCell>
        <mxCell id="rqDRrIek9EEaIk5kHPsR-14" style="edgeStyle=orthogonalEdgeStyle;rounded=0;orthogonalLoop=1;jettySize=auto;html=1;entryX=0;entryY=0.5;entryDx=0;entryDy=0;" parent="1" source="9Flou8zlX_ZpzNd3vt44-1" target="rqDRrIek9EEaIk5kHPsR-13" edge="1">
          <mxGeometry relative="1" as="geometry" />
        </mxCell>
        <mxCell id="9Flou8zlX_ZpzNd3vt44-1" value="CLIENTE" style="rounded=0;whiteSpace=wrap;html=1;fillColor=#cdeb8b;strokeColor=#36393d;" parent="1" vertex="1">
          <mxGeometry x="350" y="250" width="80" height="40" as="geometry" />
        </mxCell>
        <mxCell id="9Flou8zlX_ZpzNd3vt44-2" value="nombre" style="ellipse;whiteSpace=wrap;html=1;fillColor=#ffcccc;strokeColor=#36393d;" parent="1" vertex="1">
          <mxGeometry x="145.5" y="87.5" width="70" height="40" as="geometry" />
        </mxCell>
        <mxCell id="9Flou8zlX_ZpzNd3vt44-3" value="id_nacional" style="ellipse;whiteSpace=wrap;html=1;fillColor=#ffcccc;strokeColor=#36393d;" parent="1" vertex="1">
          <mxGeometry x="140" y="132.5" width="70" height="40" as="geometry" />
        </mxCell>
        <mxCell id="9Flou8zlX_ZpzNd3vt44-4" value="id_cliente" style="ellipse;whiteSpace=wrap;html=1;fillColor=#ffcccc;strokeColor=#36393d;" parent="1" vertex="1">
          <mxGeometry x="150" y="172.5" width="70" height="40" as="geometry" />
        </mxCell>
        <mxCell id="9Flou8zlX_ZpzNd3vt44-5" value="email" style="ellipse;whiteSpace=wrap;html=1;fillColor=#ffcccc;strokeColor=#36393d;" parent="1" vertex="1">
          <mxGeometry x="310" y="20" width="70" height="40" as="geometry" />
        </mxCell>
        <mxCell id="9Flou8zlX_ZpzNd3vt44-6" value="apellido" style="ellipse;whiteSpace=wrap;html=1;fillColor=#ffcccc;strokeColor=#36393d;" parent="1" vertex="1">
          <mxGeometry x="183" y="32.5" width="70" height="40" as="geometry" />
        </mxCell>
        <mxCell id="9Flou8zlX_ZpzNd3vt44-7" value="telefono" style="ellipse;whiteSpace=wrap;html=1;fillColor=#ffcccc;strokeColor=#36393d;" parent="1" vertex="1">
          <mxGeometry x="250" y="-5" width="70" height="40" as="geometry" />
        </mxCell>
        <mxCell id="rqDRrIek9EEaIk5kHPsR-31" style="edgeStyle=orthogonalEdgeStyle;rounded=0;orthogonalLoop=1;jettySize=auto;html=1;entryX=1;entryY=0.5;entryDx=0;entryDy=0;" parent="1" source="9Flou8zlX_ZpzNd3vt44-37" target="rqDRrIek9EEaIk5kHPsR-20" edge="1">
          <mxGeometry relative="1" as="geometry" />
        </mxCell>
        <mxCell id="rqDRrIek9EEaIk5kHPsR-32" style="edgeStyle=orthogonalEdgeStyle;rounded=0;orthogonalLoop=1;jettySize=auto;html=1;entryX=1;entryY=0.5;entryDx=0;entryDy=0;" parent="1" source="9Flou8zlX_ZpzNd3vt44-37" target="rqDRrIek9EEaIk5kHPsR-19" edge="1">
          <mxGeometry relative="1" as="geometry" />
        </mxCell>
        <mxCell id="rqDRrIek9EEaIk5kHPsR-33" style="edgeStyle=orthogonalEdgeStyle;rounded=0;orthogonalLoop=1;jettySize=auto;html=1;entryX=1;entryY=0.5;entryDx=0;entryDy=0;" parent="1" source="9Flou8zlX_ZpzNd3vt44-37" target="rqDRrIek9EEaIk5kHPsR-18" edge="1">
          <mxGeometry relative="1" as="geometry" />
        </mxCell>
        <mxCell id="rqDRrIek9EEaIk5kHPsR-34" style="edgeStyle=orthogonalEdgeStyle;rounded=0;orthogonalLoop=1;jettySize=auto;html=1;entryX=1;entryY=0.5;entryDx=0;entryDy=0;" parent="1" source="9Flou8zlX_ZpzNd3vt44-37" target="rqDRrIek9EEaIk5kHPsR-21" edge="1">
          <mxGeometry relative="1" as="geometry" />
        </mxCell>
        <mxCell id="rqDRrIek9EEaIk5kHPsR-35" style="edgeStyle=orthogonalEdgeStyle;rounded=0;orthogonalLoop=1;jettySize=auto;html=1;entryX=1;entryY=0.5;entryDx=0;entryDy=0;" parent="1" source="9Flou8zlX_ZpzNd3vt44-37" target="rqDRrIek9EEaIk5kHPsR-22" edge="1">
          <mxGeometry relative="1" as="geometry" />
        </mxCell>
        <mxCell id="rqDRrIek9EEaIk5kHPsR-36" style="edgeStyle=orthogonalEdgeStyle;rounded=0;orthogonalLoop=1;jettySize=auto;html=1;entryX=1;entryY=1;entryDx=0;entryDy=0;" parent="1" source="9Flou8zlX_ZpzNd3vt44-37" target="rqDRrIek9EEaIk5kHPsR-23" edge="1">
          <mxGeometry relative="1" as="geometry" />
        </mxCell>
        <mxCell id="rqDRrIek9EEaIk5kHPsR-37" style="edgeStyle=orthogonalEdgeStyle;rounded=0;orthogonalLoop=1;jettySize=auto;html=1;entryX=0.5;entryY=1;entryDx=0;entryDy=0;" parent="1" source="9Flou8zlX_ZpzNd3vt44-37" target="rqDRrIek9EEaIk5kHPsR-24" edge="1">
          <mxGeometry relative="1" as="geometry" />
        </mxCell>
        <mxCell id="rqDRrIek9EEaIk5kHPsR-38" style="edgeStyle=orthogonalEdgeStyle;rounded=0;orthogonalLoop=1;jettySize=auto;html=1;entryX=0;entryY=1;entryDx=0;entryDy=0;" parent="1" source="9Flou8zlX_ZpzNd3vt44-37" target="rqDRrIek9EEaIk5kHPsR-25" edge="1">
          <mxGeometry relative="1" as="geometry" />
        </mxCell>
        <mxCell id="rqDRrIek9EEaIk5kHPsR-39" style="edgeStyle=orthogonalEdgeStyle;rounded=0;orthogonalLoop=1;jettySize=auto;html=1;entryX=0;entryY=0.5;entryDx=0;entryDy=0;" parent="1" source="9Flou8zlX_ZpzNd3vt44-37" target="rqDRrIek9EEaIk5kHPsR-27" edge="1">
          <mxGeometry relative="1" as="geometry" />
        </mxCell>
        <mxCell id="rqDRrIek9EEaIk5kHPsR-41" style="edgeStyle=orthogonalEdgeStyle;rounded=0;orthogonalLoop=1;jettySize=auto;html=1;entryX=0;entryY=0.5;entryDx=0;entryDy=0;" parent="1" source="9Flou8zlX_ZpzNd3vt44-37" target="rqDRrIek9EEaIk5kHPsR-28" edge="1">
          <mxGeometry relative="1" as="geometry" />
        </mxCell>
        <mxCell id="rqDRrIek9EEaIk5kHPsR-42" style="edgeStyle=orthogonalEdgeStyle;rounded=0;orthogonalLoop=1;jettySize=auto;html=1;entryX=0;entryY=0.5;entryDx=0;entryDy=0;" parent="1" source="9Flou8zlX_ZpzNd3vt44-37" target="rqDRrIek9EEaIk5kHPsR-29" edge="1">
          <mxGeometry relative="1" as="geometry" />
        </mxCell>
        <mxCell id="rqDRrIek9EEaIk5kHPsR-43" style="edgeStyle=orthogonalEdgeStyle;rounded=0;orthogonalLoop=1;jettySize=auto;html=1;entryX=0;entryY=0.5;entryDx=0;entryDy=0;" parent="1" source="9Flou8zlX_ZpzNd3vt44-37" target="rqDRrIek9EEaIk5kHPsR-30" edge="1">
          <mxGeometry relative="1" as="geometry" />
        </mxCell>
        <mxCell id="9Flou8zlX_ZpzNd3vt44-37" value="TRABAJADOR" style="rounded=0;whiteSpace=wrap;html=1;fillColor=#cdeb8b;strokeColor=#36393d;" parent="1" vertex="1">
          <mxGeometry x="310" y="525" width="100" height="45" as="geometry" />
        </mxCell>
        <mxCell id="rqDRrIek9EEaIk5kHPsR-45" value="M" style="edgeStyle=orthogonalEdgeStyle;rounded=0;orthogonalLoop=1;jettySize=auto;html=1;entryX=0.5;entryY=1;entryDx=0;entryDy=0;" parent="1" source="nkQpO_JNfw3ojFU530y1-41" target="9Flou8zlX_ZpzNd3vt44-37" edge="1">
          <mxGeometry relative="1" as="geometry" />
        </mxCell>
        <mxCell id="rqDRrIek9EEaIk5kHPsR-216" value="1" style="edgeStyle=orthogonalEdgeStyle;rounded=0;orthogonalLoop=1;jettySize=auto;html=1;entryX=0.25;entryY=0;entryDx=0;entryDy=0;" parent="1" source="nkQpO_JNfw3ojFU530y1-41" target="rqDRrIek9EEaIk5kHPsR-44" edge="1">
          <mxGeometry relative="1" as="geometry" />
        </mxCell>
        <mxCell id="nkQpO_JNfw3ojFU530y1-41" value="Es parte de" style="rhombus;whiteSpace=wrap;html=1;fillColor=#cce5ff;strokeColor=#36393d;" parent="1" vertex="1">
          <mxGeometry x="208" y="690" width="110" height="70" as="geometry" />
        </mxCell>
        <mxCell id="rqDRrIek9EEaIk5kHPsR-1" value="activo" style="ellipse;whiteSpace=wrap;html=1;fillColor=#ffcccc;strokeColor=#36393d;" parent="1" vertex="1">
          <mxGeometry x="395" y="10" width="70" height="40" as="geometry" />
        </mxCell>
        <mxCell id="rqDRrIek9EEaIk5kHPsR-2" value="email_confirmado" style="ellipse;whiteSpace=wrap;html=1;fillColor=#ffcccc;strokeColor=#36393d;" parent="1" vertex="1">
          <mxGeometry x="465" y="50" width="100" height="40" as="geometry" />
        </mxCell>
        <mxCell id="rqDRrIek9EEaIk5kHPsR-5" value="creado" style="ellipse;whiteSpace=wrap;html=1;fillColor=#ffcccc;strokeColor=#36393d;" parent="1" vertex="1">
          <mxGeometry x="502.5" y="125" width="75" height="35" as="geometry" />
        </mxCell>
        <mxCell id="rqDRrIek9EEaIk5kHPsR-6" value="modificado" style="ellipse;whiteSpace=wrap;html=1;fillColor=#ffcccc;strokeColor=#36393d;" parent="1" vertex="1">
          <mxGeometry x="518.75" y="162.5" width="77.5" height="35" as="geometry" />
        </mxCell>
        <mxCell id="rqDRrIek9EEaIk5kHPsR-13" value="password" style="ellipse;whiteSpace=wrap;html=1;fillColor=#ffcccc;strokeColor=#36393d;" parent="1" vertex="1">
          <mxGeometry x="490" y="90" width="80" height="35" as="geometry" />
        </mxCell>
        <mxCell id="rqDRrIek9EEaIk5kHPsR-18" value="nombre" style="ellipse;whiteSpace=wrap;html=1;fillColor=#ffcccc;strokeColor=#36393d;" parent="1" vertex="1">
          <mxGeometry x="140" y="420" width="70" height="40" as="geometry" />
        </mxCell>
        <mxCell id="rqDRrIek9EEaIk5kHPsR-19" value="id_nacional" style="ellipse;whiteSpace=wrap;html=1;fillColor=#ffcccc;strokeColor=#36393d;" parent="1" vertex="1">
          <mxGeometry x="132.5" y="470" width="70" height="40" as="geometry" />
        </mxCell>
        <mxCell id="rqDRrIek9EEaIk5kHPsR-20" value="id_trabajador" style="ellipse;whiteSpace=wrap;html=1;fillColor=#ffcccc;strokeColor=#36393d;" parent="1" vertex="1">
          <mxGeometry x="130" y="515" width="90" height="45" as="geometry" />
        </mxCell>
        <mxCell id="rqDRrIek9EEaIk5kHPsR-21" value="apellido" style="ellipse;whiteSpace=wrap;html=1;fillColor=#ffcccc;strokeColor=#36393d;" parent="1" vertex="1">
          <mxGeometry x="160" y="380" width="70" height="40" as="geometry" />
        </mxCell>
        <mxCell id="rqDRrIek9EEaIk5kHPsR-22" value="puesto" style="ellipse;whiteSpace=wrap;html=1;fillColor=#ffcccc;strokeColor=#36393d;" parent="1" vertex="1">
          <mxGeometry x="172.5" y="340" width="70" height="40" as="geometry" />
        </mxCell>
        <mxCell id="rqDRrIek9EEaIk5kHPsR-23" value="id_departamento" style="ellipse;whiteSpace=wrap;html=1;fillColor=#ffcccc;strokeColor=#36393d;" parent="1" vertex="1">
          <mxGeometry x="210" y="315" width="110" height="35" as="geometry" />
        </mxCell>
        <mxCell id="rqDRrIek9EEaIk5kHPsR-24" value="telefono" style="ellipse;whiteSpace=wrap;html=1;fillColor=#ffcccc;strokeColor=#36393d;" parent="1" vertex="1">
          <mxGeometry x="325" y="312.5" width="70" height="40" as="geometry" />
        </mxCell>
        <mxCell id="rqDRrIek9EEaIk5kHPsR-25" value="email" style="ellipse;whiteSpace=wrap;html=1;fillColor=#ffcccc;strokeColor=#36393d;" parent="1" vertex="1">
          <mxGeometry x="400" y="325" width="70" height="40" as="geometry" />
        </mxCell>
        <mxCell id="rqDRrIek9EEaIk5kHPsR-27" value="id_sede" style="ellipse;whiteSpace=wrap;html=1;fillColor=#ffcccc;strokeColor=#36393d;" parent="1" vertex="1">
          <mxGeometry x="461.25" y="370" width="70" height="40" as="geometry" />
        </mxCell>
        <mxCell id="rqDRrIek9EEaIk5kHPsR-28" value="activo" style="ellipse;whiteSpace=wrap;html=1;fillColor=#ffcccc;strokeColor=#36393d;" parent="1" vertex="1">
          <mxGeometry x="461.25" y="410" width="70" height="40" as="geometry" />
        </mxCell>
        <mxCell id="rqDRrIek9EEaIk5kHPsR-29" value="creado" style="ellipse;whiteSpace=wrap;html=1;fillColor=#ffcccc;strokeColor=#36393d;" parent="1" vertex="1">
          <mxGeometry x="460" y="450" width="100" height="40" as="geometry" />
        </mxCell>
        <mxCell id="rqDRrIek9EEaIk5kHPsR-30" value="modificado" style="ellipse;whiteSpace=wrap;html=1;fillColor=#ffcccc;strokeColor=#36393d;" parent="1" vertex="1">
          <mxGeometry x="470" y="500" width="100" height="40" as="geometry" />
        </mxCell>
        <mxCell id="rqDRrIek9EEaIk5kHPsR-51" style="edgeStyle=orthogonalEdgeStyle;rounded=0;orthogonalLoop=1;jettySize=auto;html=1;" parent="1" source="rqDRrIek9EEaIk5kHPsR-44" target="rqDRrIek9EEaIk5kHPsR-48" edge="1">
          <mxGeometry relative="1" as="geometry" />
        </mxCell>
        <mxCell id="rqDRrIek9EEaIk5kHPsR-52" style="edgeStyle=orthogonalEdgeStyle;rounded=0;orthogonalLoop=1;jettySize=auto;html=1;" parent="1" source="rqDRrIek9EEaIk5kHPsR-44" target="rqDRrIek9EEaIk5kHPsR-49" edge="1">
          <mxGeometry relative="1" as="geometry" />
        </mxCell>
        <mxCell id="rqDRrIek9EEaIk5kHPsR-73" style="edgeStyle=orthogonalEdgeStyle;rounded=0;orthogonalLoop=1;jettySize=auto;html=1;entryX=0;entryY=0.5;entryDx=0;entryDy=0;" parent="1" source="rqDRrIek9EEaIk5kHPsR-44" target="rqDRrIek9EEaIk5kHPsR-50" edge="1">
          <mxGeometry relative="1" as="geometry" />
        </mxCell>
        <mxCell id="rqDRrIek9EEaIk5kHPsR-187" style="edgeStyle=orthogonalEdgeStyle;rounded=0;orthogonalLoop=1;jettySize=auto;html=1;" parent="1" source="rqDRrIek9EEaIk5kHPsR-44" target="rqDRrIek9EEaIk5kHPsR-54" edge="1">
          <mxGeometry relative="1" as="geometry" />
        </mxCell>
        <mxCell id="rqDRrIek9EEaIk5kHPsR-44" value="DEPARTAMENTO" style="rounded=0;whiteSpace=wrap;html=1;fillColor=#cdeb8b;strokeColor=#36393d;" parent="1" vertex="1">
          <mxGeometry x="243" y="895" width="150" height="40" as="geometry" />
        </mxCell>
        <mxCell id="rqDRrIek9EEaIk5kHPsR-61" style="edgeStyle=orthogonalEdgeStyle;rounded=0;orthogonalLoop=1;jettySize=auto;html=1;entryX=0.5;entryY=1;entryDx=0;entryDy=0;" parent="1" source="rqDRrIek9EEaIk5kHPsR-47" target="rqDRrIek9EEaIk5kHPsR-59" edge="1">
          <mxGeometry relative="1" as="geometry" />
        </mxCell>
        <mxCell id="rqDRrIek9EEaIk5kHPsR-62" style="edgeStyle=orthogonalEdgeStyle;rounded=0;orthogonalLoop=1;jettySize=auto;html=1;entryX=0.5;entryY=1;entryDx=0;entryDy=0;" parent="1" source="rqDRrIek9EEaIk5kHPsR-47" target="rqDRrIek9EEaIk5kHPsR-56" edge="1">
          <mxGeometry relative="1" as="geometry" />
        </mxCell>
        <mxCell id="rqDRrIek9EEaIk5kHPsR-63" style="edgeStyle=orthogonalEdgeStyle;rounded=0;orthogonalLoop=1;jettySize=auto;html=1;entryX=0.5;entryY=1;entryDx=0;entryDy=0;" parent="1" source="rqDRrIek9EEaIk5kHPsR-47" target="rqDRrIek9EEaIk5kHPsR-57" edge="1">
          <mxGeometry relative="1" as="geometry" />
        </mxCell>
        <mxCell id="rqDRrIek9EEaIk5kHPsR-64" style="edgeStyle=orthogonalEdgeStyle;rounded=0;orthogonalLoop=1;jettySize=auto;html=1;entryX=0;entryY=0.5;entryDx=0;entryDy=0;" parent="1" source="rqDRrIek9EEaIk5kHPsR-47" target="rqDRrIek9EEaIk5kHPsR-58" edge="1">
          <mxGeometry relative="1" as="geometry" />
        </mxCell>
        <mxCell id="rqDRrIek9EEaIk5kHPsR-47" value="SEDE" style="rounded=0;whiteSpace=wrap;html=1;fillColor=#cdeb8b;strokeColor=#36393d;" parent="1" vertex="1">
          <mxGeometry x="630" y="527.5" width="150" height="40" as="geometry" />
        </mxCell>
        <mxCell id="rqDRrIek9EEaIk5kHPsR-48" value="nombre" style="ellipse;whiteSpace=wrap;html=1;fillColor=#ffcccc;strokeColor=#36393d;" parent="1" vertex="1">
          <mxGeometry x="183" y="970" width="60" height="30" as="geometry" />
        </mxCell>
        <mxCell id="rqDRrIek9EEaIk5kHPsR-49" value="creado" style="ellipse;whiteSpace=wrap;html=1;fillColor=#ffcccc;strokeColor=#36393d;" parent="1" vertex="1">
          <mxGeometry x="271" y="990" width="70" height="25" as="geometry" />
        </mxCell>
        <mxCell id="rqDRrIek9EEaIk5kHPsR-50" value="modificado" style="ellipse;whiteSpace=wrap;html=1;fillColor=#ffcccc;strokeColor=#36393d;" parent="1" vertex="1">
          <mxGeometry x="343" y="955" width="70" height="35" as="geometry" />
        </mxCell>
        <mxCell id="rqDRrIek9EEaIk5kHPsR-54" value="id_departamento" style="ellipse;whiteSpace=wrap;html=1;fillColor=#ffcccc;strokeColor=#36393d;" parent="1" vertex="1">
          <mxGeometry x="110" y="920" width="98" height="30" as="geometry" />
        </mxCell>
        <mxCell id="rqDRrIek9EEaIk5kHPsR-56" value="nombre" style="ellipse;whiteSpace=wrap;html=1;fillColor=#ffcccc;strokeColor=#36393d;" parent="1" vertex="1">
          <mxGeometry x="620" y="380" width="70" height="40" as="geometry" />
        </mxCell>
        <mxCell id="rqDRrIek9EEaIk5kHPsR-57" value="creado" style="ellipse;whiteSpace=wrap;html=1;fillColor=#ffcccc;strokeColor=#36393d;" parent="1" vertex="1">
          <mxGeometry x="700" y="390" width="60" height="40" as="geometry" />
        </mxCell>
        <mxCell id="rqDRrIek9EEaIk5kHPsR-58" value="modificado" style="ellipse;whiteSpace=wrap;html=1;fillColor=#ffcccc;strokeColor=#36393d;" parent="1" vertex="1">
          <mxGeometry x="780" y="425" width="70" height="40" as="geometry" />
        </mxCell>
        <mxCell id="rqDRrIek9EEaIk5kHPsR-59" value="id_sede" style="ellipse;whiteSpace=wrap;html=1;fillColor=#ffcccc;strokeColor=#36393d;" parent="1" vertex="1">
          <mxGeometry x="585" y="430" width="70" height="40" as="geometry" />
        </mxCell>
        <mxCell id="rqDRrIek9EEaIk5kHPsR-66" value="M" style="edgeStyle=orthogonalEdgeStyle;rounded=0;orthogonalLoop=1;jettySize=auto;html=1;entryX=1;entryY=1;entryDx=0;entryDy=0;" parent="1" source="rqDRrIek9EEaIk5kHPsR-65" target="9Flou8zlX_ZpzNd3vt44-37" edge="1">
          <mxGeometry relative="1" as="geometry" />
        </mxCell>
        <mxCell id="rqDRrIek9EEaIk5kHPsR-67" value="1" style="edgeStyle=orthogonalEdgeStyle;rounded=0;orthogonalLoop=1;jettySize=auto;html=1;" parent="1" source="rqDRrIek9EEaIk5kHPsR-65" target="rqDRrIek9EEaIk5kHPsR-47" edge="1">
          <mxGeometry relative="1" as="geometry" />
        </mxCell>
        <mxCell id="rqDRrIek9EEaIk5kHPsR-65" value="Trabaja en" style="rhombus;whiteSpace=wrap;html=1;fillColor=#cce5ff;strokeColor=#36393d;" parent="1" vertex="1">
          <mxGeometry x="502.5" y="585" width="110" height="70" as="geometry" />
        </mxCell>
        <mxCell id="rqDRrIek9EEaIk5kHPsR-76" style="edgeStyle=orthogonalEdgeStyle;rounded=0;orthogonalLoop=1;jettySize=auto;html=1;" parent="1" source="rqDRrIek9EEaIk5kHPsR-68" target="rqDRrIek9EEaIk5kHPsR-69" edge="1">
          <mxGeometry relative="1" as="geometry" />
        </mxCell>
        <mxCell id="rqDRrIek9EEaIk5kHPsR-77" style="edgeStyle=orthogonalEdgeStyle;rounded=0;orthogonalLoop=1;jettySize=auto;html=1;" parent="1" source="rqDRrIek9EEaIk5kHPsR-68" target="rqDRrIek9EEaIk5kHPsR-70" edge="1">
          <mxGeometry relative="1" as="geometry" />
        </mxCell>
        <mxCell id="rqDRrIek9EEaIk5kHPsR-131" style="edgeStyle=orthogonalEdgeStyle;rounded=0;orthogonalLoop=1;jettySize=auto;html=1;entryX=0;entryY=1;entryDx=0;entryDy=0;" parent="1" source="rqDRrIek9EEaIk5kHPsR-68" target="rqDRrIek9EEaIk5kHPsR-71" edge="1">
          <mxGeometry relative="1" as="geometry" />
        </mxCell>
        <mxCell id="dX_XakJwU45S215maQ5z-3" style="edgeStyle=orthogonalEdgeStyle;rounded=0;orthogonalLoop=1;jettySize=auto;html=1;entryX=1;entryY=0.5;entryDx=0;entryDy=0;" edge="1" parent="1" source="rqDRrIek9EEaIk5kHPsR-68" target="rqDRrIek9EEaIk5kHPsR-72">
          <mxGeometry relative="1" as="geometry">
            <Array as="points">
              <mxPoint x="1080" y="500" />
              <mxPoint x="1059" y="500" />
              <mxPoint x="1059" y="488" />
            </Array>
          </mxGeometry>
        </mxCell>
        <mxCell id="rqDRrIek9EEaIk5kHPsR-68" value="CATEGORIA" style="rounded=0;whiteSpace=wrap;html=1;fillColor=#cdeb8b;strokeColor=#36393d;" parent="1" vertex="1">
          <mxGeometry x="1063.75" y="520" width="150" height="40" as="geometry" />
        </mxCell>
        <mxCell id="rqDRrIek9EEaIk5kHPsR-69" value="nombre" style="ellipse;whiteSpace=wrap;html=1;fillColor=#ffcccc;strokeColor=#36393d;" parent="1" vertex="1">
          <mxGeometry x="1058.75" y="450" width="55" height="30" as="geometry" />
        </mxCell>
        <mxCell id="rqDRrIek9EEaIk5kHPsR-70" value="creado" style="ellipse;whiteSpace=wrap;html=1;fillColor=#ffcccc;strokeColor=#36393d;" parent="1" vertex="1">
          <mxGeometry x="1133.75" y="452.5" width="65" height="35" as="geometry" />
        </mxCell>
        <mxCell id="rqDRrIek9EEaIk5kHPsR-71" value="modificado" style="ellipse;whiteSpace=wrap;html=1;fillColor=#ffcccc;strokeColor=#36393d;" parent="1" vertex="1">
          <mxGeometry x="1208.75" y="470" width="65" height="35" as="geometry" />
        </mxCell>
        <mxCell id="rqDRrIek9EEaIk5kHPsR-72" value="id_categoria" style="ellipse;whiteSpace=wrap;html=1;fillColor=#ffcccc;strokeColor=#36393d;" parent="1" vertex="1">
          <mxGeometry x="953.75" y="470" width="85" height="35" as="geometry" />
        </mxCell>
        <mxCell id="rqDRrIek9EEaIk5kHPsR-166" style="edgeStyle=orthogonalEdgeStyle;rounded=0;orthogonalLoop=1;jettySize=auto;html=1;entryX=1;entryY=0.5;entryDx=0;entryDy=0;" parent="1" source="rqDRrIek9EEaIk5kHPsR-79" target="rqDRrIek9EEaIk5kHPsR-80" edge="1">
          <mxGeometry relative="1" as="geometry" />
        </mxCell>
        <mxCell id="rqDRrIek9EEaIk5kHPsR-167" style="edgeStyle=orthogonalEdgeStyle;rounded=0;orthogonalLoop=1;jettySize=auto;html=1;entryX=1;entryY=0.5;entryDx=0;entryDy=0;" parent="1" source="rqDRrIek9EEaIk5kHPsR-79" target="rqDRrIek9EEaIk5kHPsR-81" edge="1">
          <mxGeometry relative="1" as="geometry" />
        </mxCell>
        <mxCell id="rqDRrIek9EEaIk5kHPsR-168" style="edgeStyle=orthogonalEdgeStyle;rounded=0;orthogonalLoop=1;jettySize=auto;html=1;entryX=1;entryY=1;entryDx=0;entryDy=0;" parent="1" source="rqDRrIek9EEaIk5kHPsR-79" target="rqDRrIek9EEaIk5kHPsR-83" edge="1">
          <mxGeometry relative="1" as="geometry" />
        </mxCell>
        <mxCell id="rqDRrIek9EEaIk5kHPsR-169" style="edgeStyle=orthogonalEdgeStyle;rounded=0;orthogonalLoop=1;jettySize=auto;html=1;entryX=0.5;entryY=1;entryDx=0;entryDy=0;" parent="1" source="rqDRrIek9EEaIk5kHPsR-79" target="rqDRrIek9EEaIk5kHPsR-86" edge="1">
          <mxGeometry relative="1" as="geometry" />
        </mxCell>
        <mxCell id="rqDRrIek9EEaIk5kHPsR-170" style="edgeStyle=orthogonalEdgeStyle;rounded=0;orthogonalLoop=1;jettySize=auto;html=1;entryX=0;entryY=0.5;entryDx=0;entryDy=0;" parent="1" source="rqDRrIek9EEaIk5kHPsR-79" target="rqDRrIek9EEaIk5kHPsR-87" edge="1">
          <mxGeometry relative="1" as="geometry" />
        </mxCell>
        <mxCell id="rqDRrIek9EEaIk5kHPsR-79" value="DIRECCION" style="rounded=0;whiteSpace=wrap;html=1;fillColor=#cdeb8b;strokeColor=#36393d;" parent="1" vertex="1">
          <mxGeometry x="682.5" y="107.5" width="150" height="40" as="geometry" />
        </mxCell>
        <mxCell id="rqDRrIek9EEaIk5kHPsR-80" value="id_direccion" style="ellipse;whiteSpace=wrap;html=1;fillColor=#ffcccc;strokeColor=#36393d;" parent="1" vertex="1">
          <mxGeometry x="612.5" y="60" width="77.5" height="32.5" as="geometry" />
        </mxCell>
        <mxCell id="rqDRrIek9EEaIk5kHPsR-81" value="id_cliente" style="ellipse;whiteSpace=wrap;html=1;fillColor=#ffcccc;strokeColor=#36393d;" parent="1" vertex="1">
          <mxGeometry x="640" y="22.5" width="60" height="30" as="geometry" />
        </mxCell>
        <mxCell id="rqDRrIek9EEaIk5kHPsR-83" value="direccion" style="ellipse;whiteSpace=wrap;html=1;fillColor=#ffcccc;strokeColor=#36393d;" parent="1" vertex="1">
          <mxGeometry x="667.5" y="-52.5" width="60" height="30" as="geometry" />
        </mxCell>
        <mxCell id="rqDRrIek9EEaIk5kHPsR-86" value="creado" style="ellipse;whiteSpace=wrap;html=1;fillColor=#ffcccc;strokeColor=#36393d;" parent="1" vertex="1">
          <mxGeometry x="744.5" y="-10" width="58" height="27.5" as="geometry" />
        </mxCell>
        <mxCell id="rqDRrIek9EEaIk5kHPsR-87" value="modificado" style="ellipse;whiteSpace=wrap;html=1;fillColor=#ffcccc;strokeColor=#36393d;" parent="1" vertex="1">
          <mxGeometry x="822.5" y="32.5" width="70" height="30" as="geometry" />
        </mxCell>
        <mxCell id="rqDRrIek9EEaIk5kHPsR-95" value="M" style="edgeStyle=orthogonalEdgeStyle;rounded=0;orthogonalLoop=1;jettySize=auto;html=1;entryX=0.5;entryY=1;entryDx=0;entryDy=0;" parent="1" source="rqDRrIek9EEaIk5kHPsR-93" target="rqDRrIek9EEaIk5kHPsR-79" edge="1">
          <mxGeometry relative="1" as="geometry" />
        </mxCell>
        <mxCell id="rqDRrIek9EEaIk5kHPsR-181" value="1" style="edgeStyle=orthogonalEdgeStyle;rounded=0;orthogonalLoop=1;jettySize=auto;html=1;entryX=1;entryY=0.75;entryDx=0;entryDy=0;" parent="1" source="rqDRrIek9EEaIk5kHPsR-93" target="9Flou8zlX_ZpzNd3vt44-1" edge="1">
          <mxGeometry relative="1" as="geometry" />
        </mxCell>
        <mxCell id="rqDRrIek9EEaIk5kHPsR-93" value="Tiene" style="rhombus;whiteSpace=wrap;html=1;fillColor=#cce5ff;strokeColor=#36393d;" parent="1" vertex="1">
          <mxGeometry x="550" y="205" width="87.5" height="65" as="geometry" />
        </mxCell>
        <mxCell id="rqDRrIek9EEaIk5kHPsR-106" style="edgeStyle=orthogonalEdgeStyle;rounded=0;orthogonalLoop=1;jettySize=auto;html=1;fillColor=#ffcccc;strokeColor=#36393d;" parent="1" source="rqDRrIek9EEaIk5kHPsR-96" target="rqDRrIek9EEaIk5kHPsR-99" edge="1">
          <mxGeometry relative="1" as="geometry" />
        </mxCell>
        <mxCell id="rqDRrIek9EEaIk5kHPsR-107" style="edgeStyle=orthogonalEdgeStyle;rounded=0;orthogonalLoop=1;jettySize=auto;html=1;fillColor=#ffcccc;strokeColor=#36393d;" parent="1" source="rqDRrIek9EEaIk5kHPsR-96" target="rqDRrIek9EEaIk5kHPsR-102" edge="1">
          <mxGeometry relative="1" as="geometry" />
        </mxCell>
        <mxCell id="rqDRrIek9EEaIk5kHPsR-108" style="edgeStyle=orthogonalEdgeStyle;rounded=0;orthogonalLoop=1;jettySize=auto;html=1;fillColor=#ffcccc;strokeColor=#36393d;" parent="1" source="rqDRrIek9EEaIk5kHPsR-96" target="rqDRrIek9EEaIk5kHPsR-103" edge="1">
          <mxGeometry relative="1" as="geometry" />
        </mxCell>
        <mxCell id="rqDRrIek9EEaIk5kHPsR-109" style="edgeStyle=orthogonalEdgeStyle;rounded=0;orthogonalLoop=1;jettySize=auto;html=1;" parent="1" source="rqDRrIek9EEaIk5kHPsR-96" target="rqDRrIek9EEaIk5kHPsR-104" edge="1">
          <mxGeometry relative="1" as="geometry" />
        </mxCell>
        <mxCell id="rqDRrIek9EEaIk5kHPsR-287" style="edgeStyle=orthogonalEdgeStyle;rounded=0;orthogonalLoop=1;jettySize=auto;html=1;" parent="1" source="rqDRrIek9EEaIk5kHPsR-96" target="rqDRrIek9EEaIk5kHPsR-286" edge="1">
          <mxGeometry relative="1" as="geometry" />
        </mxCell>
        <mxCell id="rqDRrIek9EEaIk5kHPsR-96" value="IMAGEN" style="rounded=0;whiteSpace=wrap;html=1;fillColor=#cdeb8b;strokeColor=#36393d;" parent="1" vertex="1">
          <mxGeometry x="1759" y="500" width="150" height="40" as="geometry" />
        </mxCell>
        <mxCell id="rqDRrIek9EEaIk5kHPsR-99" value="id_producto" style="ellipse;whiteSpace=wrap;html=1;fillColor=#ffcccc;strokeColor=#36393d;" parent="1" vertex="1">
          <mxGeometry x="1720" y="400" width="80" height="32.5" as="geometry" />
        </mxCell>
        <mxCell id="rqDRrIek9EEaIk5kHPsR-102" value="imagen" style="ellipse;whiteSpace=wrap;html=1;fillColor=#ffcccc;strokeColor=#36393d;" parent="1" vertex="1">
          <mxGeometry x="1824" y="410" width="50" height="30" as="geometry" />
        </mxCell>
        <mxCell id="rqDRrIek9EEaIk5kHPsR-103" value="creado" style="ellipse;whiteSpace=wrap;html=1;fillColor=#ffcccc;strokeColor=#36393d;" parent="1" vertex="1">
          <mxGeometry x="1899" y="430" width="65" height="35" as="geometry" />
        </mxCell>
        <mxCell id="rqDRrIek9EEaIk5kHPsR-104" value="modificado" style="ellipse;whiteSpace=wrap;html=1;fillColor=#ffcccc;strokeColor=#36393d;" parent="1" vertex="1">
          <mxGeometry x="1964" y="480" width="65" height="35" as="geometry" />
        </mxCell>
        <mxCell id="rqDRrIek9EEaIk5kHPsR-122" style="edgeStyle=orthogonalEdgeStyle;rounded=0;orthogonalLoop=1;jettySize=auto;html=1;entryX=1;entryY=0;entryDx=0;entryDy=0;fillColor=#ffcccc;strokeColor=#36393d;" parent="1" source="rqDRrIek9EEaIk5kHPsR-110" target="rqDRrIek9EEaIk5kHPsR-113" edge="1">
          <mxGeometry relative="1" as="geometry" />
        </mxCell>
        <mxCell id="rqDRrIek9EEaIk5kHPsR-123" style="edgeStyle=orthogonalEdgeStyle;rounded=0;orthogonalLoop=1;jettySize=auto;html=1;entryX=0.5;entryY=0;entryDx=0;entryDy=0;fillColor=#ffcccc;strokeColor=#36393d;" parent="1" source="rqDRrIek9EEaIk5kHPsR-110" target="rqDRrIek9EEaIk5kHPsR-115" edge="1">
          <mxGeometry relative="1" as="geometry" />
        </mxCell>
        <mxCell id="rqDRrIek9EEaIk5kHPsR-124" style="edgeStyle=orthogonalEdgeStyle;rounded=0;orthogonalLoop=1;jettySize=auto;html=1;fillColor=#ffcccc;strokeColor=#36393d;" parent="1" source="rqDRrIek9EEaIk5kHPsR-110" target="rqDRrIek9EEaIk5kHPsR-116" edge="1">
          <mxGeometry relative="1" as="geometry" />
        </mxCell>
        <mxCell id="rqDRrIek9EEaIk5kHPsR-125" style="edgeStyle=orthogonalEdgeStyle;rounded=0;orthogonalLoop=1;jettySize=auto;html=1;entryX=0.5;entryY=0;entryDx=0;entryDy=0;fillColor=#ffcccc;strokeColor=#36393d;" parent="1" source="rqDRrIek9EEaIk5kHPsR-110" target="rqDRrIek9EEaIk5kHPsR-117" edge="1">
          <mxGeometry relative="1" as="geometry" />
        </mxCell>
        <mxCell id="rqDRrIek9EEaIk5kHPsR-127" style="edgeStyle=orthogonalEdgeStyle;rounded=0;orthogonalLoop=1;jettySize=auto;html=1;entryX=0;entryY=0.5;entryDx=0;entryDy=0;" parent="1" source="rqDRrIek9EEaIk5kHPsR-110" target="rqDRrIek9EEaIk5kHPsR-120" edge="1">
          <mxGeometry relative="1" as="geometry" />
        </mxCell>
        <mxCell id="rqDRrIek9EEaIk5kHPsR-128" style="edgeStyle=orthogonalEdgeStyle;rounded=0;orthogonalLoop=1;jettySize=auto;html=1;entryX=0;entryY=0;entryDx=0;entryDy=0;fillColor=#ffcccc;strokeColor=#36393d;" parent="1" source="rqDRrIek9EEaIk5kHPsR-110" target="rqDRrIek9EEaIk5kHPsR-118" edge="1">
          <mxGeometry relative="1" as="geometry" />
        </mxCell>
        <mxCell id="rqDRrIek9EEaIk5kHPsR-135" style="edgeStyle=orthogonalEdgeStyle;rounded=0;orthogonalLoop=1;jettySize=auto;html=1;entryX=0;entryY=0.5;entryDx=0;entryDy=0;fillColor=#ffcccc;strokeColor=#36393d;" parent="1" source="rqDRrIek9EEaIk5kHPsR-110" target="rqDRrIek9EEaIk5kHPsR-134" edge="1">
          <mxGeometry relative="1" as="geometry" />
        </mxCell>
        <mxCell id="rqDRrIek9EEaIk5kHPsR-214" style="edgeStyle=orthogonalEdgeStyle;rounded=0;orthogonalLoop=1;jettySize=auto;html=1;entryX=1;entryY=0.5;entryDx=0;entryDy=0;fillColor=#ffcccc;strokeColor=#36393d;" parent="1" source="rqDRrIek9EEaIk5kHPsR-110" target="rqDRrIek9EEaIk5kHPsR-112" edge="1">
          <mxGeometry relative="1" as="geometry" />
        </mxCell>
        <mxCell id="rqDRrIek9EEaIk5kHPsR-110" value="PRODUCTO" style="rounded=0;whiteSpace=wrap;html=1;fillColor=#cdeb8b;strokeColor=#36393d;" parent="1" vertex="1">
          <mxGeometry x="1225.13" y="647.5" width="150" height="40" as="geometry" />
        </mxCell>
        <mxCell id="rqDRrIek9EEaIk5kHPsR-112" value="id_producto" style="ellipse;whiteSpace=wrap;html=1;fillColor=#ffcccc;strokeColor=#36393d;" parent="1" vertex="1">
          <mxGeometry x="1050" y="660" width="70.13" height="32.5" as="geometry" />
        </mxCell>
        <mxCell id="rqDRrIek9EEaIk5kHPsR-113" value="sku" style="ellipse;whiteSpace=wrap;html=1;fillColor=#ffcccc;strokeColor=#36393d;" parent="1" vertex="1">
          <mxGeometry x="1135.13" y="697.5" width="50" height="30" as="geometry" />
        </mxCell>
        <mxCell id="rqDRrIek9EEaIk5kHPsR-115" value="nombre" style="ellipse;whiteSpace=wrap;html=1;fillColor=#ffcccc;strokeColor=#36393d;" parent="1" vertex="1">
          <mxGeometry x="1185.13" y="712.5" width="50" height="30" as="geometry" />
        </mxCell>
        <mxCell id="rqDRrIek9EEaIk5kHPsR-116" value="descripcion" style="ellipse;whiteSpace=wrap;html=1;fillColor=#ffcccc;strokeColor=#36393d;" parent="1" vertex="1">
          <mxGeometry x="1242.63" y="712.5" width="72.5" height="30" as="geometry" />
        </mxCell>
        <mxCell id="rqDRrIek9EEaIk5kHPsR-117" value="precio" style="ellipse;whiteSpace=wrap;html=1;fillColor=#ffcccc;strokeColor=#36393d;" parent="1" vertex="1">
          <mxGeometry x="1320.13" y="712.5" width="72.5" height="30" as="geometry" />
        </mxCell>
        <mxCell id="rqDRrIek9EEaIk5kHPsR-118" value="slug" style="ellipse;whiteSpace=wrap;html=1;fillColor=#ffcccc;strokeColor=#36393d;" parent="1" vertex="1">
          <mxGeometry x="1392.63" y="722.5" width="72.5" height="30" as="geometry" />
        </mxCell>
        <mxCell id="rqDRrIek9EEaIk5kHPsR-119" value="creado" style="ellipse;whiteSpace=wrap;html=1;fillColor=#ffcccc;strokeColor=#36393d;" parent="1" vertex="1">
          <mxGeometry x="1480.13" y="622.5" width="65" height="35" as="geometry" />
        </mxCell>
        <mxCell id="rqDRrIek9EEaIk5kHPsR-120" value="modificado" style="ellipse;whiteSpace=wrap;html=1;fillColor=#ffcccc;strokeColor=#36393d;" parent="1" vertex="1">
          <mxGeometry x="1480.13" y="585" width="65" height="35" as="geometry" />
        </mxCell>
        <mxCell id="rqDRrIek9EEaIk5kHPsR-126" style="edgeStyle=orthogonalEdgeStyle;rounded=0;orthogonalLoop=1;jettySize=auto;html=1;entryX=0.019;entryY=0.355;entryDx=0;entryDy=0;entryPerimeter=0;" parent="1" source="rqDRrIek9EEaIk5kHPsR-110" target="rqDRrIek9EEaIk5kHPsR-119" edge="1">
          <mxGeometry relative="1" as="geometry" />
        </mxCell>
        <mxCell id="rqDRrIek9EEaIk5kHPsR-288" value="M" style="edgeStyle=orthogonalEdgeStyle;rounded=0;orthogonalLoop=1;jettySize=auto;html=1;entryX=0.5;entryY=0;entryDx=0;entryDy=0;" parent="1" source="rqDRrIek9EEaIk5kHPsR-129" target="rqDRrIek9EEaIk5kHPsR-110" edge="1">
          <mxGeometry relative="1" as="geometry">
            <Array as="points">
              <mxPoint x="947" y="600" />
              <mxPoint x="1300" y="600" />
            </Array>
          </mxGeometry>
        </mxCell>
        <mxCell id="rqDRrIek9EEaIk5kHPsR-291" value="1" style="edgeStyle=orthogonalEdgeStyle;rounded=0;orthogonalLoop=1;jettySize=auto;html=1;entryX=0;entryY=0.5;entryDx=0;entryDy=0;" parent="1" source="rqDRrIek9EEaIk5kHPsR-129" target="rqDRrIek9EEaIk5kHPsR-68" edge="1">
          <mxGeometry relative="1" as="geometry" />
        </mxCell>
        <mxCell id="rqDRrIek9EEaIk5kHPsR-129" value="Parte de" style="rhombus;whiteSpace=wrap;html=1;fillColor=#cce5ff;strokeColor=#36393d;" parent="1" vertex="1">
          <mxGeometry x="903.75" y="530" width="87.5" height="65" as="geometry" />
        </mxCell>
        <mxCell id="rqDRrIek9EEaIk5kHPsR-134" value="id_categoria" style="ellipse;whiteSpace=wrap;html=1;fillColor=#ffcccc;strokeColor=#36393d;" parent="1" vertex="1">
          <mxGeometry x="1460.13" y="697.5" width="72.5" height="30" as="geometry" />
        </mxCell>
        <mxCell id="rqDRrIek9EEaIk5kHPsR-136" value="activo" style="ellipse;whiteSpace=wrap;html=1;fillColor=#ffcccc;strokeColor=#36393d;" parent="1" vertex="1">
          <mxGeometry x="1470.13" y="662.5" width="65" height="35" as="geometry" />
        </mxCell>
        <mxCell id="rqDRrIek9EEaIk5kHPsR-140" value="M" style="edgeStyle=orthogonalEdgeStyle;rounded=0;orthogonalLoop=1;jettySize=auto;html=1;entryX=0.5;entryY=1;entryDx=0;entryDy=0;" parent="1" source="rqDRrIek9EEaIk5kHPsR-137" target="rqDRrIek9EEaIk5kHPsR-96" edge="1">
          <mxGeometry relative="1" as="geometry" />
        </mxCell>
        <mxCell id="rqDRrIek9EEaIk5kHPsR-171" value="1" style="edgeStyle=orthogonalEdgeStyle;rounded=0;orthogonalLoop=1;jettySize=auto;html=1;entryX=1;entryY=0;entryDx=0;entryDy=0;" parent="1" source="rqDRrIek9EEaIk5kHPsR-137" target="rqDRrIek9EEaIk5kHPsR-110" edge="1">
          <mxGeometry relative="1" as="geometry">
            <Array as="points">
              <mxPoint x="1375" y="561" />
            </Array>
          </mxGeometry>
        </mxCell>
        <mxCell id="rqDRrIek9EEaIk5kHPsR-137" value="Tiene" style="rhombus;whiteSpace=wrap;html=1;fillColor=#cce5ff;strokeColor=#36393d;" parent="1" vertex="1">
          <mxGeometry x="1562.88" y="530" width="70" height="62.5" as="geometry" />
        </mxCell>
        <mxCell id="rqDRrIek9EEaIk5kHPsR-153" style="edgeStyle=orthogonalEdgeStyle;rounded=0;orthogonalLoop=1;jettySize=auto;html=1;entryX=0.5;entryY=0;entryDx=0;entryDy=0;fillColor=#ffcccc;strokeColor=#36393d;" parent="1" source="rqDRrIek9EEaIk5kHPsR-141" target="rqDRrIek9EEaIk5kHPsR-142" edge="1">
          <mxGeometry relative="1" as="geometry" />
        </mxCell>
        <mxCell id="rqDRrIek9EEaIk5kHPsR-154" style="edgeStyle=orthogonalEdgeStyle;rounded=0;orthogonalLoop=1;jettySize=auto;html=1;fillColor=#ffcccc;strokeColor=#36393d;" parent="1" source="rqDRrIek9EEaIk5kHPsR-141" target="rqDRrIek9EEaIk5kHPsR-143" edge="1">
          <mxGeometry relative="1" as="geometry" />
        </mxCell>
        <mxCell id="rqDRrIek9EEaIk5kHPsR-155" style="edgeStyle=orthogonalEdgeStyle;rounded=0;orthogonalLoop=1;jettySize=auto;html=1;fillColor=#ffcccc;strokeColor=#36393d;" parent="1" source="rqDRrIek9EEaIk5kHPsR-141" target="rqDRrIek9EEaIk5kHPsR-144" edge="1">
          <mxGeometry relative="1" as="geometry" />
        </mxCell>
        <mxCell id="rqDRrIek9EEaIk5kHPsR-156" style="edgeStyle=orthogonalEdgeStyle;rounded=0;orthogonalLoop=1;jettySize=auto;html=1;" parent="1" source="rqDRrIek9EEaIk5kHPsR-141" target="rqDRrIek9EEaIk5kHPsR-145" edge="1">
          <mxGeometry relative="1" as="geometry" />
        </mxCell>
        <mxCell id="rqDRrIek9EEaIk5kHPsR-157" style="edgeStyle=orthogonalEdgeStyle;rounded=0;orthogonalLoop=1;jettySize=auto;html=1;entryX=0.5;entryY=0;entryDx=0;entryDy=0;fillColor=#ffcccc;strokeColor=#36393d;" parent="1" source="rqDRrIek9EEaIk5kHPsR-141" target="rqDRrIek9EEaIk5kHPsR-147" edge="1">
          <mxGeometry relative="1" as="geometry" />
        </mxCell>
        <mxCell id="rqDRrIek9EEaIk5kHPsR-158" style="edgeStyle=orthogonalEdgeStyle;rounded=0;orthogonalLoop=1;jettySize=auto;html=1;entryX=0;entryY=0;entryDx=0;entryDy=0;fillColor=#ffcccc;strokeColor=#36393d;" parent="1" source="rqDRrIek9EEaIk5kHPsR-141" target="rqDRrIek9EEaIk5kHPsR-146" edge="1">
          <mxGeometry relative="1" as="geometry" />
        </mxCell>
        <mxCell id="rqDRrIek9EEaIk5kHPsR-141" value="INVENTARIO" style="rounded=0;whiteSpace=wrap;html=1;fillColor=#cdeb8b;strokeColor=#36393d;" parent="1" vertex="1">
          <mxGeometry x="1297.88" y="965" width="150" height="40" as="geometry" />
        </mxCell>
        <mxCell id="rqDRrIek9EEaIk5kHPsR-142" value="id_inventario" style="ellipse;whiteSpace=wrap;html=1;fillColor=#ffcccc;strokeColor=#36393d;" parent="1" vertex="1">
          <mxGeometry x="1160" y="1000" width="84.13" height="35" as="geometry" />
        </mxCell>
        <mxCell id="rqDRrIek9EEaIk5kHPsR-143" value="id_producto" style="ellipse;whiteSpace=wrap;html=1;fillColor=#ffcccc;strokeColor=#36393d;" parent="1" vertex="1">
          <mxGeometry x="1251.63" y="1040" width="72.5" height="35" as="geometry" />
        </mxCell>
        <mxCell id="rqDRrIek9EEaIk5kHPsR-144" value="id_sede" style="ellipse;whiteSpace=wrap;html=1;fillColor=#ffcccc;strokeColor=#36393d;" parent="1" vertex="1">
          <mxGeometry x="1344.13" y="1040" width="50" height="35" as="geometry" />
        </mxCell>
        <mxCell id="rqDRrIek9EEaIk5kHPsR-145" value="cantidad" style="ellipse;whiteSpace=wrap;html=1;fillColor=#ffcccc;strokeColor=#36393d;" parent="1" vertex="1">
          <mxGeometry x="1409.13" y="1040" width="48.75" height="35" as="geometry" />
        </mxCell>
        <mxCell id="rqDRrIek9EEaIk5kHPsR-146" value="creado" style="ellipse;whiteSpace=wrap;html=1;fillColor=#ffcccc;strokeColor=#36393d;" parent="1" vertex="1">
          <mxGeometry x="1480.13" y="1045" width="65" height="35" as="geometry" />
        </mxCell>
        <mxCell id="rqDRrIek9EEaIk5kHPsR-147" value="modificado" style="ellipse;whiteSpace=wrap;html=1;fillColor=#ffcccc;strokeColor=#36393d;" parent="1" vertex="1">
          <mxGeometry x="1497.88" y="1005" width="65" height="35" as="geometry" />
        </mxCell>
        <mxCell id="rqDRrIek9EEaIk5kHPsR-152" value="M" style="edgeStyle=orthogonalEdgeStyle;rounded=0;orthogonalLoop=1;jettySize=auto;html=1;exitX=1;exitY=0.5;exitDx=0;exitDy=0;" parent="1" source="rqDRrIek9EEaIk5kHPsR-148" target="rqDRrIek9EEaIk5kHPsR-141" edge="1">
          <mxGeometry relative="1" as="geometry" />
        </mxCell>
        <mxCell id="rqDRrIek9EEaIk5kHPsR-290" value="1" style="edgeStyle=orthogonalEdgeStyle;rounded=0;orthogonalLoop=1;jettySize=auto;html=1;entryX=0;entryY=0;entryDx=0;entryDy=0;" parent="1" source="rqDRrIek9EEaIk5kHPsR-148" target="rqDRrIek9EEaIk5kHPsR-110" edge="1">
          <mxGeometry relative="1" as="geometry">
            <Array as="points">
              <mxPoint x="1248" y="769" />
              <mxPoint x="1030" y="769" />
              <mxPoint x="1030" y="620" />
              <mxPoint x="1225" y="620" />
            </Array>
          </mxGeometry>
        </mxCell>
        <mxCell id="rqDRrIek9EEaIk5kHPsR-148" value="Tiene" style="rhombus;whiteSpace=wrap;html=1;fillColor=#cce5ff;strokeColor=#36393d;" parent="1" vertex="1">
          <mxGeometry x="1203.75" y="850" width="87.5" height="65" as="geometry" />
        </mxCell>
        <mxCell id="rqDRrIek9EEaIk5kHPsR-160" value="1" style="edgeStyle=orthogonalEdgeStyle;rounded=0;orthogonalLoop=1;jettySize=auto;html=1;entryX=1;entryY=0.5;entryDx=0;entryDy=0;" parent="1" source="rqDRrIek9EEaIk5kHPsR-159" target="rqDRrIek9EEaIk5kHPsR-47" edge="1">
          <mxGeometry relative="1" as="geometry" />
        </mxCell>
        <mxCell id="rqDRrIek9EEaIk5kHPsR-161" value="M" style="edgeStyle=orthogonalEdgeStyle;rounded=0;orthogonalLoop=1;jettySize=auto;html=1;entryX=0.25;entryY=0;entryDx=0;entryDy=0;" parent="1" source="rqDRrIek9EEaIk5kHPsR-159" target="rqDRrIek9EEaIk5kHPsR-141" edge="1">
          <mxGeometry relative="1" as="geometry">
            <Array as="points">
              <mxPoint x="955" y="820" />
              <mxPoint x="1160" y="820" />
              <mxPoint x="1160" y="965" />
            </Array>
          </mxGeometry>
        </mxCell>
        <mxCell id="rqDRrIek9EEaIk5kHPsR-159" value="Tiene" style="rhombus;whiteSpace=wrap;html=1;fillColor=#cce5ff;strokeColor=#36393d;" parent="1" vertex="1">
          <mxGeometry x="911.25" y="670" width="87.5" height="65" as="geometry" />
        </mxCell>
        <mxCell id="rqDRrIek9EEaIk5kHPsR-175" style="edgeStyle=orthogonalEdgeStyle;rounded=0;orthogonalLoop=1;jettySize=auto;html=1;entryX=1;entryY=0.5;entryDx=0;entryDy=0;" parent="1" source="rqDRrIek9EEaIk5kHPsR-162" target="rqDRrIek9EEaIk5kHPsR-163" edge="1">
          <mxGeometry relative="1" as="geometry" />
        </mxCell>
        <mxCell id="rqDRrIek9EEaIk5kHPsR-176" style="edgeStyle=orthogonalEdgeStyle;rounded=0;orthogonalLoop=1;jettySize=auto;html=1;entryX=1;entryY=0.5;entryDx=0;entryDy=0;" parent="1" source="rqDRrIek9EEaIk5kHPsR-162" target="rqDRrIek9EEaIk5kHPsR-164" edge="1">
          <mxGeometry relative="1" as="geometry" />
        </mxCell>
        <mxCell id="rqDRrIek9EEaIk5kHPsR-177" style="edgeStyle=orthogonalEdgeStyle;rounded=0;orthogonalLoop=1;jettySize=auto;html=1;entryX=1;entryY=1;entryDx=0;entryDy=0;" parent="1" source="rqDRrIek9EEaIk5kHPsR-162" target="rqDRrIek9EEaIk5kHPsR-172" edge="1">
          <mxGeometry relative="1" as="geometry" />
        </mxCell>
        <mxCell id="rqDRrIek9EEaIk5kHPsR-178" style="edgeStyle=orthogonalEdgeStyle;rounded=0;orthogonalLoop=1;jettySize=auto;html=1;" parent="1" source="rqDRrIek9EEaIk5kHPsR-162" target="rqDRrIek9EEaIk5kHPsR-173" edge="1">
          <mxGeometry relative="1" as="geometry" />
        </mxCell>
        <mxCell id="rqDRrIek9EEaIk5kHPsR-179" style="edgeStyle=orthogonalEdgeStyle;rounded=0;orthogonalLoop=1;jettySize=auto;html=1;" parent="1" source="rqDRrIek9EEaIk5kHPsR-162" target="rqDRrIek9EEaIk5kHPsR-174" edge="1">
          <mxGeometry relative="1" as="geometry" />
        </mxCell>
        <mxCell id="dX_XakJwU45S215maQ5z-2" style="edgeStyle=orthogonalEdgeStyle;rounded=0;orthogonalLoop=1;jettySize=auto;html=1;entryX=1;entryY=0.5;entryDx=0;entryDy=0;" edge="1" parent="1" source="rqDRrIek9EEaIk5kHPsR-162" target="dX_XakJwU45S215maQ5z-1">
          <mxGeometry relative="1" as="geometry" />
        </mxCell>
        <mxCell id="rqDRrIek9EEaIk5kHPsR-162" value="ORDEN" style="rounded=0;whiteSpace=wrap;html=1;fillColor=#cdeb8b;strokeColor=#36393d;" parent="1" vertex="1">
          <mxGeometry x="927.5" y="92.5" width="150" height="40" as="geometry" />
        </mxCell>
        <mxCell id="rqDRrIek9EEaIk5kHPsR-163" value="id_orden" style="ellipse;whiteSpace=wrap;html=1;fillColor=#ffcccc;strokeColor=#36393d;" parent="1" vertex="1">
          <mxGeometry x="906.25" y="35" width="53.75" height="35" as="geometry" />
        </mxCell>
        <mxCell id="rqDRrIek9EEaIk5kHPsR-164" value="id_cliente" style="ellipse;whiteSpace=wrap;html=1;fillColor=#ffcccc;strokeColor=#36393d;" parent="1" vertex="1">
          <mxGeometry x="920" y="-2.5" width="55" height="30" as="geometry" />
        </mxCell>
        <mxCell id="rqDRrIek9EEaIk5kHPsR-172" value="id_sede" style="ellipse;whiteSpace=wrap;html=1;fillColor=#ffcccc;strokeColor=#36393d;" parent="1" vertex="1">
          <mxGeometry x="968.75" y="-87.5" width="55" height="30" as="geometry" />
        </mxCell>
        <mxCell id="rqDRrIek9EEaIk5kHPsR-173" value="creado" style="ellipse;whiteSpace=wrap;html=1;fillColor=#ffcccc;strokeColor=#36393d;" parent="1" vertex="1">
          <mxGeometry x="1021" y="-38.75" width="58" height="27.5" as="geometry" />
        </mxCell>
        <mxCell id="rqDRrIek9EEaIk5kHPsR-174" value="modificado" style="ellipse;whiteSpace=wrap;html=1;fillColor=#ffcccc;strokeColor=#36393d;" parent="1" vertex="1">
          <mxGeometry x="1055" y="10" width="70" height="30" as="geometry" />
        </mxCell>
        <mxCell id="rqDRrIek9EEaIk5kHPsR-182" value="1" style="edgeStyle=orthogonalEdgeStyle;rounded=0;orthogonalLoop=1;jettySize=auto;html=1;entryX=0.75;entryY=1;entryDx=0;entryDy=0;" parent="1" source="rqDRrIek9EEaIk5kHPsR-180" target="9Flou8zlX_ZpzNd3vt44-1" edge="1">
          <mxGeometry relative="1" as="geometry">
            <Array as="points">
              <mxPoint x="843" y="280" />
              <mxPoint x="618" y="280" />
              <mxPoint x="618" y="300" />
              <mxPoint x="410" y="300" />
            </Array>
          </mxGeometry>
        </mxCell>
        <mxCell id="rqDRrIek9EEaIk5kHPsR-183" value="M" style="edgeStyle=orthogonalEdgeStyle;rounded=0;orthogonalLoop=1;jettySize=auto;html=1;entryX=0;entryY=0.5;entryDx=0;entryDy=0;" parent="1" source="rqDRrIek9EEaIk5kHPsR-180" target="rqDRrIek9EEaIk5kHPsR-162" edge="1">
          <mxGeometry relative="1" as="geometry" />
        </mxCell>
        <mxCell id="rqDRrIek9EEaIk5kHPsR-180" value="Tiene" style="rhombus;whiteSpace=wrap;html=1;fillColor=#cce5ff;strokeColor=#36393d;" parent="1" vertex="1">
          <mxGeometry x="805" y="200" width="75" height="60" as="geometry" />
        </mxCell>
        <mxCell id="rqDRrIek9EEaIk5kHPsR-189" value="1" style="edgeStyle=orthogonalEdgeStyle;rounded=0;orthogonalLoop=1;jettySize=auto;html=1;entryX=1;entryY=0;entryDx=0;entryDy=0;" parent="1" source="rqDRrIek9EEaIk5kHPsR-184" target="rqDRrIek9EEaIk5kHPsR-47" edge="1">
          <mxGeometry relative="1" as="geometry">
            <Array as="points">
              <mxPoint x="900" y="414" />
              <mxPoint x="900" y="480" />
              <mxPoint x="780" y="480" />
            </Array>
          </mxGeometry>
        </mxCell>
        <mxCell id="rqDRrIek9EEaIk5kHPsR-297" value="M" style="edgeStyle=orthogonalEdgeStyle;rounded=0;orthogonalLoop=1;jettySize=auto;html=1;entryX=0.5;entryY=1;entryDx=0;entryDy=0;" parent="1" source="rqDRrIek9EEaIk5kHPsR-184" target="rqDRrIek9EEaIk5kHPsR-162" edge="1">
          <mxGeometry relative="1" as="geometry">
            <Array as="points">
              <mxPoint x="930" y="336" />
              <mxPoint x="930" y="217" />
              <mxPoint x="1003" y="217" />
            </Array>
          </mxGeometry>
        </mxCell>
        <mxCell id="rqDRrIek9EEaIk5kHPsR-184" value="Registrada en" style="rhombus;whiteSpace=wrap;html=1;fillColor=#cce5ff;strokeColor=#36393d;" parent="1" vertex="1">
          <mxGeometry x="840" y="302.5" width="89" height="67.5" as="geometry" />
        </mxCell>
        <mxCell id="rqDRrIek9EEaIk5kHPsR-200" style="edgeStyle=orthogonalEdgeStyle;rounded=0;orthogonalLoop=1;jettySize=auto;html=1;entryX=0.5;entryY=0;entryDx=0;entryDy=0;" parent="1" source="rqDRrIek9EEaIk5kHPsR-188" target="rqDRrIek9EEaIk5kHPsR-190" edge="1">
          <mxGeometry relative="1" as="geometry" />
        </mxCell>
        <mxCell id="rqDRrIek9EEaIk5kHPsR-201" style="edgeStyle=orthogonalEdgeStyle;rounded=0;orthogonalLoop=1;jettySize=auto;html=1;fillColor=#ffcccc;strokeColor=#36393d;" parent="1" source="rqDRrIek9EEaIk5kHPsR-188" target="rqDRrIek9EEaIk5kHPsR-191" edge="1">
          <mxGeometry relative="1" as="geometry" />
        </mxCell>
        <mxCell id="rqDRrIek9EEaIk5kHPsR-202" style="edgeStyle=orthogonalEdgeStyle;rounded=0;orthogonalLoop=1;jettySize=auto;html=1;entryX=0.5;entryY=0;entryDx=0;entryDy=0;fillColor=#ffcccc;strokeColor=#36393d;" parent="1" source="rqDRrIek9EEaIk5kHPsR-188" target="rqDRrIek9EEaIk5kHPsR-193" edge="1">
          <mxGeometry relative="1" as="geometry" />
        </mxCell>
        <mxCell id="rqDRrIek9EEaIk5kHPsR-203" style="edgeStyle=orthogonalEdgeStyle;rounded=0;orthogonalLoop=1;jettySize=auto;html=1;entryX=0.5;entryY=0;entryDx=0;entryDy=0;fillColor=#ffcccc;strokeColor=#36393d;" parent="1" source="rqDRrIek9EEaIk5kHPsR-188" target="rqDRrIek9EEaIk5kHPsR-194" edge="1">
          <mxGeometry relative="1" as="geometry" />
        </mxCell>
        <mxCell id="rqDRrIek9EEaIk5kHPsR-204" style="edgeStyle=orthogonalEdgeStyle;rounded=0;orthogonalLoop=1;jettySize=auto;html=1;fillColor=#ffcccc;strokeColor=#36393d;" parent="1" source="rqDRrIek9EEaIk5kHPsR-188" target="rqDRrIek9EEaIk5kHPsR-195" edge="1">
          <mxGeometry relative="1" as="geometry" />
        </mxCell>
        <mxCell id="rqDRrIek9EEaIk5kHPsR-205" style="edgeStyle=orthogonalEdgeStyle;rounded=0;orthogonalLoop=1;jettySize=auto;html=1;entryX=0;entryY=0.5;entryDx=0;entryDy=0;" parent="1" source="rqDRrIek9EEaIk5kHPsR-188" target="rqDRrIek9EEaIk5kHPsR-199" edge="1">
          <mxGeometry relative="1" as="geometry" />
        </mxCell>
        <mxCell id="rqDRrIek9EEaIk5kHPsR-206" style="edgeStyle=orthogonalEdgeStyle;rounded=0;orthogonalLoop=1;jettySize=auto;html=1;entryX=0;entryY=0.5;entryDx=0;entryDy=0;" parent="1" source="rqDRrIek9EEaIk5kHPsR-188" target="rqDRrIek9EEaIk5kHPsR-196" edge="1">
          <mxGeometry relative="1" as="geometry" />
        </mxCell>
        <mxCell id="rqDRrIek9EEaIk5kHPsR-207" style="edgeStyle=orthogonalEdgeStyle;rounded=0;orthogonalLoop=1;jettySize=auto;html=1;entryX=0;entryY=0.5;entryDx=0;entryDy=0;" parent="1" source="rqDRrIek9EEaIk5kHPsR-188" target="rqDRrIek9EEaIk5kHPsR-197" edge="1">
          <mxGeometry relative="1" as="geometry" />
        </mxCell>
        <mxCell id="rqDRrIek9EEaIk5kHPsR-188" value="MOVIMIENTO" style="rounded=0;whiteSpace=wrap;html=1;fillColor=#cdeb8b;strokeColor=#36393d;" parent="1" vertex="1">
          <mxGeometry x="911.25" y="880" width="150" height="40" as="geometry" />
        </mxCell>
        <mxCell id="rqDRrIek9EEaIk5kHPsR-190" value="id_movimiento" style="ellipse;whiteSpace=wrap;html=1;fillColor=#ffcccc;strokeColor=#36393d;" parent="1" vertex="1">
          <mxGeometry x="760" y="910" width="100" height="40" as="geometry" />
        </mxCell>
        <mxCell id="rqDRrIek9EEaIk5kHPsR-191" value="id_sede_origen" style="ellipse;whiteSpace=wrap;html=1;fillColor=#ffcccc;strokeColor=#36393d;" parent="1" vertex="1">
          <mxGeometry x="818.75" y="950" width="97.5" height="45" as="geometry" />
        </mxCell>
        <mxCell id="rqDRrIek9EEaIk5kHPsR-193" value="id_sede_destino" style="ellipse;whiteSpace=wrap;html=1;fillColor=#ffcccc;strokeColor=#36393d;" parent="1" vertex="1">
          <mxGeometry x="870" y="1000" width="97.5" height="45" as="geometry" />
        </mxCell>
        <mxCell id="rqDRrIek9EEaIk5kHPsR-194" value="status" style="ellipse;whiteSpace=wrap;html=1;fillColor=#ffcccc;strokeColor=#36393d;" parent="1" vertex="1">
          <mxGeometry x="956.25" y="1030" width="55" height="35" as="geometry" />
        </mxCell>
        <mxCell id="rqDRrIek9EEaIk5kHPsR-195" value="arribo_estimado" style="ellipse;whiteSpace=wrap;html=1;fillColor=#ffcccc;strokeColor=#36393d;" parent="1" vertex="1">
          <mxGeometry x="1021.25" y="1030" width="92.5" height="45" as="geometry" />
        </mxCell>
        <mxCell id="rqDRrIek9EEaIk5kHPsR-196" value="creado" style="ellipse;whiteSpace=wrap;html=1;fillColor=#ffcccc;strokeColor=#36393d;" parent="1" vertex="1">
          <mxGeometry x="1088.75" y="960" width="55" height="35" as="geometry" />
        </mxCell>
        <mxCell id="rqDRrIek9EEaIk5kHPsR-197" value="solicitado" style="ellipse;whiteSpace=wrap;html=1;fillColor=#ffcccc;strokeColor=#36393d;" parent="1" vertex="1">
          <mxGeometry x="1078.75" y="1000" width="75" height="35" as="geometry" />
        </mxCell>
        <mxCell id="rqDRrIek9EEaIk5kHPsR-199" value="modificado" style="ellipse;whiteSpace=wrap;html=1;fillColor=#ffcccc;strokeColor=#36393d;" parent="1" vertex="1">
          <mxGeometry x="1088.75" y="920" width="61.25" height="35" as="geometry" />
        </mxCell>
        <mxCell id="rqDRrIek9EEaIk5kHPsR-220" style="edgeStyle=orthogonalEdgeStyle;rounded=0;orthogonalLoop=1;jettySize=auto;html=1;entryX=1;entryY=0.5;entryDx=0;entryDy=0;" parent="1" source="rqDRrIek9EEaIk5kHPsR-211" target="rqDRrIek9EEaIk5kHPsR-212" edge="1">
          <mxGeometry relative="1" as="geometry" />
        </mxCell>
        <mxCell id="rqDRrIek9EEaIk5kHPsR-221" style="edgeStyle=orthogonalEdgeStyle;rounded=0;orthogonalLoop=1;jettySize=auto;html=1;entryX=1;entryY=0;entryDx=0;entryDy=0;" parent="1" source="rqDRrIek9EEaIk5kHPsR-211" target="rqDRrIek9EEaIk5kHPsR-213" edge="1">
          <mxGeometry relative="1" as="geometry">
            <Array as="points">
              <mxPoint x="430" y="783" />
              <mxPoint x="430" y="816" />
            </Array>
          </mxGeometry>
        </mxCell>
        <mxCell id="rqDRrIek9EEaIk5kHPsR-222" style="edgeStyle=orthogonalEdgeStyle;rounded=0;orthogonalLoop=1;jettySize=auto;html=1;" parent="1" source="rqDRrIek9EEaIk5kHPsR-211" target="rqDRrIek9EEaIk5kHPsR-215" edge="1">
          <mxGeometry relative="1" as="geometry" />
        </mxCell>
        <mxCell id="rqDRrIek9EEaIk5kHPsR-223" style="edgeStyle=orthogonalEdgeStyle;rounded=0;orthogonalLoop=1;jettySize=auto;html=1;entryX=0.5;entryY=0;entryDx=0;entryDy=0;" parent="1" source="rqDRrIek9EEaIk5kHPsR-211" target="rqDRrIek9EEaIk5kHPsR-217" edge="1">
          <mxGeometry relative="1" as="geometry" />
        </mxCell>
        <mxCell id="rqDRrIek9EEaIk5kHPsR-224" style="edgeStyle=orthogonalEdgeStyle;rounded=0;orthogonalLoop=1;jettySize=auto;html=1;" parent="1" source="rqDRrIek9EEaIk5kHPsR-211" target="rqDRrIek9EEaIk5kHPsR-218" edge="1">
          <mxGeometry relative="1" as="geometry" />
        </mxCell>
        <mxCell id="rqDRrIek9EEaIk5kHPsR-225" style="edgeStyle=orthogonalEdgeStyle;rounded=0;orthogonalLoop=1;jettySize=auto;html=1;" parent="1" source="rqDRrIek9EEaIk5kHPsR-211" target="rqDRrIek9EEaIk5kHPsR-219" edge="1">
          <mxGeometry relative="1" as="geometry" />
        </mxCell>
        <mxCell id="rqDRrIek9EEaIk5kHPsR-211" value="MOVIMIENTO_PRODUCTOS" style="rounded=0;whiteSpace=wrap;html=1;fillColor=#cdeb8b;strokeColor=#36393d;" parent="1" vertex="1">
          <mxGeometry x="445" y="760" width="167.5" height="45" as="geometry" />
        </mxCell>
        <mxCell id="rqDRrIek9EEaIk5kHPsR-212" value="id_movimiento_producto" style="ellipse;whiteSpace=wrap;html=1;fillColor=#ffcccc;strokeColor=#36393d;" parent="1" vertex="1">
          <mxGeometry x="280" y="768.75" width="140" height="27.5" as="geometry" />
        </mxCell>
        <mxCell id="rqDRrIek9EEaIk5kHPsR-213" value="id_movimiento" style="ellipse;whiteSpace=wrap;html=1;fillColor=#ffcccc;strokeColor=#36393d;" parent="1" vertex="1">
          <mxGeometry x="331.25" y="810" width="102.5" height="40" as="geometry" />
        </mxCell>
        <mxCell id="rqDRrIek9EEaIk5kHPsR-215" value="id_producto" style="ellipse;whiteSpace=wrap;html=1;fillColor=#ffcccc;strokeColor=#36393d;" parent="1" vertex="1">
          <mxGeometry x="413" y="845" width="78.75" height="40" as="geometry" />
        </mxCell>
        <mxCell id="rqDRrIek9EEaIk5kHPsR-217" value="cantidad" style="ellipse;whiteSpace=wrap;html=1;fillColor=#ffcccc;strokeColor=#36393d;" parent="1" vertex="1">
          <mxGeometry x="456.88" y="885" width="78.75" height="40" as="geometry" />
        </mxCell>
        <mxCell id="rqDRrIek9EEaIk5kHPsR-218" value="creado" style="ellipse;whiteSpace=wrap;html=1;fillColor=#ffcccc;strokeColor=#36393d;" parent="1" vertex="1">
          <mxGeometry x="550" y="880" width="70" height="25" as="geometry" />
        </mxCell>
        <mxCell id="rqDRrIek9EEaIk5kHPsR-219" value="modificado" style="ellipse;whiteSpace=wrap;html=1;fillColor=#ffcccc;strokeColor=#36393d;" parent="1" vertex="1">
          <mxGeometry x="612.5" y="845" width="70" height="35" as="geometry" />
        </mxCell>
        <mxCell id="rqDRrIek9EEaIk5kHPsR-227" value="1" style="edgeStyle=orthogonalEdgeStyle;rounded=0;orthogonalLoop=1;jettySize=auto;html=1;entryX=1;entryY=1;entryDx=0;entryDy=0;" parent="1" source="rqDRrIek9EEaIk5kHPsR-226" target="rqDRrIek9EEaIk5kHPsR-47" edge="1">
          <mxGeometry relative="1" as="geometry" />
        </mxCell>
        <mxCell id="rqDRrIek9EEaIk5kHPsR-228" value="M" style="edgeStyle=orthogonalEdgeStyle;rounded=0;orthogonalLoop=1;jettySize=auto;html=1;" parent="1" source="rqDRrIek9EEaIk5kHPsR-226" target="rqDRrIek9EEaIk5kHPsR-188" edge="1">
          <mxGeometry relative="1" as="geometry" />
        </mxCell>
        <mxCell id="rqDRrIek9EEaIk5kHPsR-226" value="Registrada a" style="rhombus;whiteSpace=wrap;html=1;fillColor=#cce5ff;strokeColor=#36393d;" parent="1" vertex="1">
          <mxGeometry x="852.5" y="745" width="87.5" height="65" as="geometry" />
        </mxCell>
        <mxCell id="rqDRrIek9EEaIk5kHPsR-230" value="M" style="edgeStyle=orthogonalEdgeStyle;rounded=0;orthogonalLoop=1;jettySize=auto;html=1;entryX=1;entryY=0.5;entryDx=0;entryDy=0;" parent="1" source="rqDRrIek9EEaIk5kHPsR-229" target="rqDRrIek9EEaIk5kHPsR-211" edge="1">
          <mxGeometry relative="1" as="geometry">
            <Array as="points">
              <mxPoint x="670" y="843" />
              <mxPoint x="670" y="783" />
            </Array>
          </mxGeometry>
        </mxCell>
        <mxCell id="rqDRrIek9EEaIk5kHPsR-231" value="1" style="edgeStyle=orthogonalEdgeStyle;rounded=0;orthogonalLoop=1;jettySize=auto;html=1;entryX=0;entryY=0.25;entryDx=0;entryDy=0;" parent="1" source="rqDRrIek9EEaIk5kHPsR-229" target="rqDRrIek9EEaIk5kHPsR-188" edge="1">
          <mxGeometry relative="1" as="geometry" />
        </mxCell>
        <mxCell id="rqDRrIek9EEaIk5kHPsR-229" value="Registran" style="rhombus;whiteSpace=wrap;html=1;fillColor=#cce5ff;strokeColor=#36393d;" parent="1" vertex="1">
          <mxGeometry x="700" y="810" width="87.5" height="65" as="geometry" />
        </mxCell>
        <mxCell id="rqDRrIek9EEaIk5kHPsR-234" value="M" style="edgeStyle=orthogonalEdgeStyle;rounded=0;orthogonalLoop=1;jettySize=auto;html=1;entryX=1;entryY=0;entryDx=0;entryDy=0;" parent="1" source="rqDRrIek9EEaIk5kHPsR-232" target="rqDRrIek9EEaIk5kHPsR-211" edge="1">
          <mxGeometry relative="1" as="geometry" />
        </mxCell>
        <mxCell id="rqDRrIek9EEaIk5kHPsR-289" value="1" style="edgeStyle=orthogonalEdgeStyle;rounded=0;orthogonalLoop=1;jettySize=auto;html=1;entryX=0.25;entryY=0;entryDx=0;entryDy=0;" parent="1" source="rqDRrIek9EEaIk5kHPsR-232" target="rqDRrIek9EEaIk5kHPsR-110" edge="1">
          <mxGeometry relative="1" as="geometry">
            <Array as="points">
              <mxPoint x="705" y="630" />
              <mxPoint x="1263" y="630" />
            </Array>
          </mxGeometry>
        </mxCell>
        <mxCell id="rqDRrIek9EEaIk5kHPsR-232" value="Aparece" style="rhombus;whiteSpace=wrap;html=1;fillColor=#cce5ff;strokeColor=#36393d;" parent="1" vertex="1">
          <mxGeometry x="661.25" y="692.5" width="87.5" height="65" as="geometry" />
        </mxCell>
        <mxCell id="rqDRrIek9EEaIk5kHPsR-254" style="edgeStyle=orthogonalEdgeStyle;rounded=0;orthogonalLoop=1;jettySize=auto;html=1;entryX=1;entryY=0.5;entryDx=0;entryDy=0;" parent="1" source="rqDRrIek9EEaIk5kHPsR-235" target="rqDRrIek9EEaIk5kHPsR-241" edge="1">
          <mxGeometry relative="1" as="geometry" />
        </mxCell>
        <mxCell id="rqDRrIek9EEaIk5kHPsR-255" style="edgeStyle=orthogonalEdgeStyle;rounded=0;orthogonalLoop=1;jettySize=auto;html=1;entryX=1;entryY=0.5;entryDx=0;entryDy=0;" parent="1" source="rqDRrIek9EEaIk5kHPsR-235" target="rqDRrIek9EEaIk5kHPsR-242" edge="1">
          <mxGeometry relative="1" as="geometry" />
        </mxCell>
        <mxCell id="rqDRrIek9EEaIk5kHPsR-256" style="edgeStyle=orthogonalEdgeStyle;rounded=0;orthogonalLoop=1;jettySize=auto;html=1;entryX=1;entryY=0.5;entryDx=0;entryDy=0;" parent="1" source="rqDRrIek9EEaIk5kHPsR-235" target="rqDRrIek9EEaIk5kHPsR-243" edge="1">
          <mxGeometry relative="1" as="geometry" />
        </mxCell>
        <mxCell id="rqDRrIek9EEaIk5kHPsR-257" style="edgeStyle=orthogonalEdgeStyle;rounded=0;orthogonalLoop=1;jettySize=auto;html=1;entryX=1;entryY=0.5;entryDx=0;entryDy=0;" parent="1" source="rqDRrIek9EEaIk5kHPsR-235" target="rqDRrIek9EEaIk5kHPsR-244" edge="1">
          <mxGeometry relative="1" as="geometry" />
        </mxCell>
        <mxCell id="rqDRrIek9EEaIk5kHPsR-258" style="edgeStyle=orthogonalEdgeStyle;rounded=0;orthogonalLoop=1;jettySize=auto;html=1;entryX=1;entryY=0;entryDx=0;entryDy=0;fillColor=#ffcccc;strokeColor=#36393d;" parent="1" source="rqDRrIek9EEaIk5kHPsR-235" target="rqDRrIek9EEaIk5kHPsR-245" edge="1">
          <mxGeometry relative="1" as="geometry" />
        </mxCell>
        <mxCell id="rqDRrIek9EEaIk5kHPsR-259" style="edgeStyle=orthogonalEdgeStyle;rounded=0;orthogonalLoop=1;jettySize=auto;html=1;entryX=0.5;entryY=0;entryDx=0;entryDy=0;fillColor=#ffcccc;strokeColor=#36393d;" parent="1" source="rqDRrIek9EEaIk5kHPsR-235" target="rqDRrIek9EEaIk5kHPsR-246" edge="1">
          <mxGeometry relative="1" as="geometry" />
        </mxCell>
        <mxCell id="rqDRrIek9EEaIk5kHPsR-260" style="edgeStyle=orthogonalEdgeStyle;rounded=0;orthogonalLoop=1;jettySize=auto;html=1;entryX=0.5;entryY=0;entryDx=0;entryDy=0;fillColor=#ffcccc;strokeColor=#36393d;" parent="1" source="rqDRrIek9EEaIk5kHPsR-235" target="rqDRrIek9EEaIk5kHPsR-247" edge="1">
          <mxGeometry relative="1" as="geometry" />
        </mxCell>
        <mxCell id="rqDRrIek9EEaIk5kHPsR-261" style="edgeStyle=orthogonalEdgeStyle;rounded=0;orthogonalLoop=1;jettySize=auto;html=1;" parent="1" source="rqDRrIek9EEaIk5kHPsR-235" target="rqDRrIek9EEaIk5kHPsR-248" edge="1">
          <mxGeometry relative="1" as="geometry">
            <Array as="points">
              <mxPoint x="1230" y="265" />
            </Array>
          </mxGeometry>
        </mxCell>
        <mxCell id="rqDRrIek9EEaIk5kHPsR-284" style="edgeStyle=orthogonalEdgeStyle;rounded=0;orthogonalLoop=1;jettySize=auto;html=1;" parent="1" source="rqDRrIek9EEaIk5kHPsR-235" target="rqDRrIek9EEaIk5kHPsR-249" edge="1">
          <mxGeometry relative="1" as="geometry" />
        </mxCell>
        <mxCell id="rqDRrIek9EEaIk5kHPsR-235" value="ORDEN_ENTREGADA" style="rounded=0;whiteSpace=wrap;html=1;fillColor=#cdeb8b;strokeColor=#36393d;" parent="1" vertex="1">
          <mxGeometry x="1077.5" y="230" width="150" height="40" as="geometry" />
        </mxCell>
        <mxCell id="rqDRrIek9EEaIk5kHPsR-273" style="edgeStyle=orthogonalEdgeStyle;rounded=0;orthogonalLoop=1;jettySize=auto;html=1;entryX=1;entryY=0.5;entryDx=0;entryDy=0;" parent="1" source="rqDRrIek9EEaIk5kHPsR-236" target="rqDRrIek9EEaIk5kHPsR-263" edge="1">
          <mxGeometry relative="1" as="geometry" />
        </mxCell>
        <mxCell id="rqDRrIek9EEaIk5kHPsR-274" style="edgeStyle=orthogonalEdgeStyle;rounded=0;orthogonalLoop=1;jettySize=auto;html=1;entryX=1;entryY=0.5;entryDx=0;entryDy=0;" parent="1" source="rqDRrIek9EEaIk5kHPsR-236" target="rqDRrIek9EEaIk5kHPsR-264" edge="1">
          <mxGeometry relative="1" as="geometry" />
        </mxCell>
        <mxCell id="rqDRrIek9EEaIk5kHPsR-275" style="edgeStyle=orthogonalEdgeStyle;rounded=0;orthogonalLoop=1;jettySize=auto;html=1;entryX=0.5;entryY=1;entryDx=0;entryDy=0;fillColor=#ffcccc;strokeColor=#36393d;" parent="1" source="rqDRrIek9EEaIk5kHPsR-236" target="rqDRrIek9EEaIk5kHPsR-267" edge="1">
          <mxGeometry relative="1" as="geometry" />
        </mxCell>
        <mxCell id="rqDRrIek9EEaIk5kHPsR-276" style="edgeStyle=orthogonalEdgeStyle;rounded=0;orthogonalLoop=1;jettySize=auto;html=1;fillColor=#ffcccc;strokeColor=#36393d;" parent="1" source="rqDRrIek9EEaIk5kHPsR-236" target="rqDRrIek9EEaIk5kHPsR-269" edge="1">
          <mxGeometry relative="1" as="geometry" />
        </mxCell>
        <mxCell id="rqDRrIek9EEaIk5kHPsR-277" style="edgeStyle=orthogonalEdgeStyle;rounded=0;orthogonalLoop=1;jettySize=auto;html=1;entryX=0.5;entryY=1;entryDx=0;entryDy=0;fillColor=#ffcccc;strokeColor=#36393d;" parent="1" source="rqDRrIek9EEaIk5kHPsR-236" target="rqDRrIek9EEaIk5kHPsR-270" edge="1">
          <mxGeometry relative="1" as="geometry" />
        </mxCell>
        <mxCell id="rqDRrIek9EEaIk5kHPsR-278" style="edgeStyle=orthogonalEdgeStyle;rounded=0;orthogonalLoop=1;jettySize=auto;html=1;entryX=0;entryY=0.5;entryDx=0;entryDy=0;" parent="1" source="rqDRrIek9EEaIk5kHPsR-236" target="rqDRrIek9EEaIk5kHPsR-271" edge="1">
          <mxGeometry relative="1" as="geometry" />
        </mxCell>
        <mxCell id="rqDRrIek9EEaIk5kHPsR-280" style="edgeStyle=orthogonalEdgeStyle;rounded=0;orthogonalLoop=1;jettySize=auto;html=1;entryX=1;entryY=1;entryDx=0;entryDy=0;fillColor=#ffcccc;strokeColor=#36393d;" parent="1" source="rqDRrIek9EEaIk5kHPsR-236" target="rqDRrIek9EEaIk5kHPsR-279" edge="1">
          <mxGeometry relative="1" as="geometry" />
        </mxCell>
        <mxCell id="rqDRrIek9EEaIk5kHPsR-236" value="ORDEN_PRODUCTO" style="rounded=0;whiteSpace=wrap;html=1;fillColor=#cdeb8b;strokeColor=#36393d;" parent="1" vertex="1">
          <mxGeometry x="1252" width="127.5" height="32.5" as="geometry" />
        </mxCell>
        <mxCell id="rqDRrIek9EEaIk5kHPsR-302" style="edgeStyle=orthogonalEdgeStyle;rounded=0;orthogonalLoop=1;jettySize=auto;html=1;entryX=0.5;entryY=1;entryDx=0;entryDy=0;fillColor=#ffcccc;strokeColor=#36393d;" parent="1" source="rqDRrIek9EEaIk5kHPsR-237" target="rqDRrIek9EEaIk5kHPsR-298" edge="1">
          <mxGeometry relative="1" as="geometry" />
        </mxCell>
        <mxCell id="rqDRrIek9EEaIk5kHPsR-303" style="edgeStyle=orthogonalEdgeStyle;rounded=0;orthogonalLoop=1;jettySize=auto;html=1;entryX=0.5;entryY=1;entryDx=0;entryDy=0;" parent="1" source="rqDRrIek9EEaIk5kHPsR-237" target="rqDRrIek9EEaIk5kHPsR-294" edge="1">
          <mxGeometry relative="1" as="geometry" />
        </mxCell>
        <mxCell id="rqDRrIek9EEaIk5kHPsR-304" style="edgeStyle=orthogonalEdgeStyle;rounded=0;orthogonalLoop=1;jettySize=auto;html=1;entryX=1;entryY=0.5;entryDx=0;entryDy=0;fillColor=#ffcccc;strokeColor=#36393d;" parent="1" source="rqDRrIek9EEaIk5kHPsR-237" target="rqDRrIek9EEaIk5kHPsR-295" edge="1">
          <mxGeometry relative="1" as="geometry" />
        </mxCell>
        <mxCell id="rqDRrIek9EEaIk5kHPsR-305" style="edgeStyle=orthogonalEdgeStyle;rounded=0;orthogonalLoop=1;jettySize=auto;html=1;entryX=0.5;entryY=1;entryDx=0;entryDy=0;fillColor=#ffcccc;strokeColor=#36393d;" parent="1" source="rqDRrIek9EEaIk5kHPsR-237" target="rqDRrIek9EEaIk5kHPsR-299" edge="1">
          <mxGeometry relative="1" as="geometry" />
        </mxCell>
        <mxCell id="rqDRrIek9EEaIk5kHPsR-306" style="edgeStyle=orthogonalEdgeStyle;rounded=0;orthogonalLoop=1;jettySize=auto;html=1;entryX=0.5;entryY=1;entryDx=0;entryDy=0;" parent="1" source="rqDRrIek9EEaIk5kHPsR-237" target="rqDRrIek9EEaIk5kHPsR-301" edge="1">
          <mxGeometry relative="1" as="geometry" />
        </mxCell>
        <mxCell id="rqDRrIek9EEaIk5kHPsR-307" style="edgeStyle=orthogonalEdgeStyle;rounded=0;orthogonalLoop=1;jettySize=auto;html=1;entryX=0;entryY=0.5;entryDx=0;entryDy=0;fillColor=#ffcccc;strokeColor=#36393d;" parent="1" source="rqDRrIek9EEaIk5kHPsR-237" target="rqDRrIek9EEaIk5kHPsR-300" edge="1">
          <mxGeometry relative="1" as="geometry">
            <Array as="points">
              <mxPoint x="1590" y="66" />
            </Array>
          </mxGeometry>
        </mxCell>
        <mxCell id="rqDRrIek9EEaIk5kHPsR-237" value="PAGO_ORDEN" style="rounded=0;whiteSpace=wrap;html=1;fillColor=#cdeb8b;strokeColor=#36393d;" parent="1" vertex="1">
          <mxGeometry x="1497.88" y="132.5" width="150" height="40" as="geometry" />
        </mxCell>
        <mxCell id="rqDRrIek9EEaIk5kHPsR-333" style="edgeStyle=orthogonalEdgeStyle;rounded=0;orthogonalLoop=1;jettySize=auto;html=1;entryX=1;entryY=0.5;entryDx=0;entryDy=0;fillColor=#ffcccc;strokeColor=#36393d;" parent="1" source="rqDRrIek9EEaIk5kHPsR-239" target="rqDRrIek9EEaIk5kHPsR-326" edge="1">
          <mxGeometry relative="1" as="geometry" />
        </mxCell>
        <mxCell id="rqDRrIek9EEaIk5kHPsR-334" style="edgeStyle=orthogonalEdgeStyle;rounded=0;orthogonalLoop=1;jettySize=auto;html=1;entryX=0.5;entryY=1;entryDx=0;entryDy=0;fillColor=#ffcccc;strokeColor=#36393d;" parent="1" source="rqDRrIek9EEaIk5kHPsR-239" target="rqDRrIek9EEaIk5kHPsR-327" edge="1">
          <mxGeometry relative="1" as="geometry">
            <Array as="points">
              <mxPoint x="1510" y="323" />
              <mxPoint x="1510" y="260" />
            </Array>
          </mxGeometry>
        </mxCell>
        <mxCell id="rqDRrIek9EEaIk5kHPsR-335" style="edgeStyle=orthogonalEdgeStyle;rounded=0;orthogonalLoop=1;jettySize=auto;html=1;entryX=0.5;entryY=1;entryDx=0;entryDy=0;fillColor=#ffcccc;strokeColor=#36393d;" parent="1" source="rqDRrIek9EEaIk5kHPsR-239" target="rqDRrIek9EEaIk5kHPsR-328" edge="1">
          <mxGeometry relative="1" as="geometry" />
        </mxCell>
        <mxCell id="rqDRrIek9EEaIk5kHPsR-336" style="edgeStyle=orthogonalEdgeStyle;rounded=0;orthogonalLoop=1;jettySize=auto;html=1;entryX=0.5;entryY=1;entryDx=0;entryDy=0;fillColor=#ffcccc;strokeColor=#36393d;" parent="1" source="rqDRrIek9EEaIk5kHPsR-239" target="rqDRrIek9EEaIk5kHPsR-329" edge="1">
          <mxGeometry relative="1" as="geometry" />
        </mxCell>
        <mxCell id="rqDRrIek9EEaIk5kHPsR-337" style="edgeStyle=orthogonalEdgeStyle;rounded=0;orthogonalLoop=1;jettySize=auto;html=1;entryX=0.5;entryY=1;entryDx=0;entryDy=0;fillColor=#ffcccc;strokeColor=#36393d;" parent="1" source="rqDRrIek9EEaIk5kHPsR-239" target="rqDRrIek9EEaIk5kHPsR-330" edge="1">
          <mxGeometry relative="1" as="geometry" />
        </mxCell>
        <mxCell id="rqDRrIek9EEaIk5kHPsR-338" style="edgeStyle=orthogonalEdgeStyle;rounded=0;orthogonalLoop=1;jettySize=auto;html=1;entryX=0;entryY=0.5;entryDx=0;entryDy=0;fillColor=#ffcccc;strokeColor=#36393d;" parent="1" source="rqDRrIek9EEaIk5kHPsR-239" target="rqDRrIek9EEaIk5kHPsR-331" edge="1">
          <mxGeometry relative="1" as="geometry" />
        </mxCell>
        <mxCell id="rqDRrIek9EEaIk5kHPsR-339" style="edgeStyle=orthogonalEdgeStyle;rounded=0;orthogonalLoop=1;jettySize=auto;html=1;entryX=0;entryY=0.5;entryDx=0;entryDy=0;" parent="1" source="rqDRrIek9EEaIk5kHPsR-239" target="rqDRrIek9EEaIk5kHPsR-332" edge="1">
          <mxGeometry relative="1" as="geometry" />
        </mxCell>
        <mxCell id="rqDRrIek9EEaIk5kHPsR-239" value="PRODUCTO_DEVOLUCION" style="rounded=0;whiteSpace=wrap;html=1;fillColor=#cdeb8b;strokeColor=#36393d;" parent="1" vertex="1">
          <mxGeometry x="1521.63" y="305" width="172.5" height="35" as="geometry" />
        </mxCell>
        <mxCell id="rqDRrIek9EEaIk5kHPsR-241" value="id_orden_entregada" style="ellipse;whiteSpace=wrap;html=1;fillColor=#ffcccc;strokeColor=#36393d;" parent="1" vertex="1">
          <mxGeometry x="930" y="230" width="120" height="35" as="geometry" />
        </mxCell>
        <mxCell id="rqDRrIek9EEaIk5kHPsR-242" value="id_orden" style="ellipse;whiteSpace=wrap;html=1;fillColor=#ffcccc;strokeColor=#36393d;" parent="1" vertex="1">
          <mxGeometry x="971.25" y="290" width="50" height="30" as="geometry" />
        </mxCell>
        <mxCell id="rqDRrIek9EEaIk5kHPsR-243" value="empresa" style="ellipse;whiteSpace=wrap;html=1;fillColor=#ffcccc;strokeColor=#36393d;" parent="1" vertex="1">
          <mxGeometry x="971.25" y="330" width="50" height="30" as="geometry" />
        </mxCell>
        <mxCell id="rqDRrIek9EEaIk5kHPsR-244" value="direccion" style="ellipse;whiteSpace=wrap;html=1;fillColor=#ffcccc;strokeColor=#36393d;" parent="1" vertex="1">
          <mxGeometry x="990" y="365" width="50" height="30" as="geometry" />
        </mxCell>
        <mxCell id="rqDRrIek9EEaIk5kHPsR-245" value="numero_empresa" style="ellipse;whiteSpace=wrap;html=1;fillColor=#ffcccc;strokeColor=#36393d;" parent="1" vertex="1">
          <mxGeometry x="998.75" y="395" width="105" height="30" as="geometry" />
        </mxCell>
        <mxCell id="rqDRrIek9EEaIk5kHPsR-246" value="status" style="ellipse;whiteSpace=wrap;html=1;fillColor=#ffcccc;strokeColor=#36393d;" parent="1" vertex="1">
          <mxGeometry x="1117.5" y="390" width="50" height="30" as="geometry" />
        </mxCell>
        <mxCell id="rqDRrIek9EEaIk5kHPsR-247" value="entregado" style="ellipse;whiteSpace=wrap;html=1;fillColor=#ffcccc;strokeColor=#36393d;" parent="1" vertex="1">
          <mxGeometry x="1167.5" y="362.5" width="65" height="27.5" as="geometry" />
        </mxCell>
        <mxCell id="rqDRrIek9EEaIk5kHPsR-248" value="creado" style="ellipse;whiteSpace=wrap;html=1;fillColor=#ffcccc;strokeColor=#36393d;" parent="1" vertex="1">
          <mxGeometry x="1208.75" y="325" width="58" height="27.5" as="geometry" />
        </mxCell>
        <mxCell id="rqDRrIek9EEaIk5kHPsR-249" value="modificado" style="ellipse;whiteSpace=wrap;html=1;fillColor=#ffcccc;strokeColor=#36393d;" parent="1" vertex="1">
          <mxGeometry x="1244.13" y="285" width="70" height="30" as="geometry" />
        </mxCell>
        <mxCell id="rqDRrIek9EEaIk5kHPsR-253" value="1" style="edgeStyle=orthogonalEdgeStyle;rounded=0;orthogonalLoop=1;jettySize=auto;html=1;" parent="1" source="rqDRrIek9EEaIk5kHPsR-251" target="rqDRrIek9EEaIk5kHPsR-235" edge="1">
          <mxGeometry relative="1" as="geometry" />
        </mxCell>
        <mxCell id="rqDRrIek9EEaIk5kHPsR-296" value="1" style="edgeStyle=orthogonalEdgeStyle;rounded=0;orthogonalLoop=1;jettySize=auto;html=1;entryX=0.75;entryY=1;entryDx=0;entryDy=0;" parent="1" source="rqDRrIek9EEaIk5kHPsR-251" target="rqDRrIek9EEaIk5kHPsR-162" edge="1">
          <mxGeometry relative="1" as="geometry" />
        </mxCell>
        <mxCell id="rqDRrIek9EEaIk5kHPsR-251" value="Registrada" style="rhombus;whiteSpace=wrap;html=1;fillColor=#cce5ff;strokeColor=#36393d;" parent="1" vertex="1">
          <mxGeometry x="1101" y="142.5" width="69" height="57.5" as="geometry" />
        </mxCell>
        <mxCell id="rqDRrIek9EEaIk5kHPsR-263" value="id_orden_prducto" style="ellipse;whiteSpace=wrap;html=1;fillColor=#ffcccc;strokeColor=#36393d;" parent="1" vertex="1">
          <mxGeometry x="1100" y="-20" width="113.88" height="27.5" as="geometry" />
        </mxCell>
        <mxCell id="rqDRrIek9EEaIk5kHPsR-264" value="id_orden" style="ellipse;whiteSpace=wrap;html=1;fillColor=#ffcccc;strokeColor=#36393d;" parent="1" vertex="1">
          <mxGeometry x="1177.63" y="-57.5" width="50" height="30" as="geometry" />
        </mxCell>
        <mxCell id="rqDRrIek9EEaIk5kHPsR-267" value="cantidad" style="ellipse;whiteSpace=wrap;html=1;fillColor=#ffcccc;strokeColor=#36393d;" parent="1" vertex="1">
          <mxGeometry x="1270.13" y="-125" width="48.75" height="35" as="geometry" />
        </mxCell>
        <mxCell id="rqDRrIek9EEaIk5kHPsR-269" value="precio" style="ellipse;whiteSpace=wrap;html=1;fillColor=#ffcccc;strokeColor=#36393d;" parent="1" vertex="1">
          <mxGeometry x="1312.63" y="-90" width="48.75" height="35" as="geometry" />
        </mxCell>
        <mxCell id="rqDRrIek9EEaIk5kHPsR-270" value="creado" style="ellipse;whiteSpace=wrap;html=1;fillColor=#ffcccc;strokeColor=#36393d;" parent="1" vertex="1">
          <mxGeometry x="1359.63" y="-77.5" width="58" height="27.5" as="geometry" />
        </mxCell>
        <mxCell id="rqDRrIek9EEaIk5kHPsR-271" value="modificado" style="ellipse;whiteSpace=wrap;html=1;fillColor=#ffcccc;strokeColor=#36393d;" parent="1" vertex="1">
          <mxGeometry x="1395.13" y="-40" width="70" height="30" as="geometry" />
        </mxCell>
        <mxCell id="rqDRrIek9EEaIk5kHPsR-279" value="id_producto" style="ellipse;whiteSpace=wrap;html=1;fillColor=#ffcccc;strokeColor=#36393d;" parent="1" vertex="1">
          <mxGeometry x="1206.38" y="-95" width="73.75" height="32.5" as="geometry" />
        </mxCell>
        <mxCell id="rqDRrIek9EEaIk5kHPsR-282" value="M" style="edgeStyle=orthogonalEdgeStyle;rounded=0;orthogonalLoop=1;jettySize=auto;html=1;" parent="1" source="rqDRrIek9EEaIk5kHPsR-281" target="rqDRrIek9EEaIk5kHPsR-236" edge="1">
          <mxGeometry relative="1" as="geometry">
            <Array as="points">
              <mxPoint x="1306" y="76" />
            </Array>
          </mxGeometry>
        </mxCell>
        <mxCell id="rqDRrIek9EEaIk5kHPsR-283" value="1" style="edgeStyle=orthogonalEdgeStyle;rounded=0;orthogonalLoop=1;jettySize=auto;html=1;entryX=1;entryY=0.25;entryDx=0;entryDy=0;" parent="1" source="rqDRrIek9EEaIk5kHPsR-281" target="rqDRrIek9EEaIk5kHPsR-162" edge="1">
          <mxGeometry relative="1" as="geometry">
            <Array as="points">
              <mxPoint x="1170" y="80" />
              <mxPoint x="1170" y="102" />
            </Array>
          </mxGeometry>
        </mxCell>
        <mxCell id="rqDRrIek9EEaIk5kHPsR-281" value="Asocian" style="rhombus;whiteSpace=wrap;html=1;fillColor=#cce5ff;strokeColor=#36393d;" parent="1" vertex="1">
          <mxGeometry x="1208.75" y="47.5" width="69" height="57.5" as="geometry" />
        </mxCell>
        <mxCell id="rqDRrIek9EEaIk5kHPsR-292" value="M" style="edgeStyle=orthogonalEdgeStyle;rounded=0;orthogonalLoop=1;jettySize=auto;html=1;entryX=0.75;entryY=1;entryDx=0;entryDy=0;" parent="1" source="rqDRrIek9EEaIk5kHPsR-285" target="rqDRrIek9EEaIk5kHPsR-236" edge="1">
          <mxGeometry relative="1" as="geometry">
            <Array as="points">
              <mxPoint x="1326" y="255" />
              <mxPoint x="1338" y="255" />
            </Array>
          </mxGeometry>
        </mxCell>
        <mxCell id="rqDRrIek9EEaIk5kHPsR-293" value="1" style="edgeStyle=orthogonalEdgeStyle;rounded=0;orthogonalLoop=1;jettySize=auto;html=1;entryX=0.75;entryY=0;entryDx=0;entryDy=0;" parent="1" source="rqDRrIek9EEaIk5kHPsR-285" target="rqDRrIek9EEaIk5kHPsR-110" edge="1">
          <mxGeometry relative="1" as="geometry" />
        </mxCell>
        <mxCell id="rqDRrIek9EEaIk5kHPsR-285" value="Registra" style="rhombus;whiteSpace=wrap;html=1;fillColor=#cce5ff;strokeColor=#36393d;" parent="1" vertex="1">
          <mxGeometry x="1291.25" y="382.5" width="69" height="57.5" as="geometry" />
        </mxCell>
        <mxCell id="rqDRrIek9EEaIk5kHPsR-286" value="id_imagen" style="ellipse;whiteSpace=wrap;html=1;fillColor=#ffcccc;strokeColor=#36393d;" parent="1" vertex="1">
          <mxGeometry x="1660" y="460" width="83.75" height="30" as="geometry" />
        </mxCell>
        <mxCell id="rqDRrIek9EEaIk5kHPsR-294" value="id_pago_orden" style="ellipse;whiteSpace=wrap;html=1;fillColor=#ffcccc;strokeColor=#36393d;" parent="1" vertex="1">
          <mxGeometry x="1380" y="102.5" width="100.13" height="27.5" as="geometry" />
        </mxCell>
        <mxCell id="rqDRrIek9EEaIk5kHPsR-295" value="id_orden" style="ellipse;whiteSpace=wrap;html=1;fillColor=#ffcccc;strokeColor=#36393d;" parent="1" vertex="1">
          <mxGeometry x="1447.88" y="65" width="50" height="30" as="geometry" />
        </mxCell>
        <mxCell id="rqDRrIek9EEaIk5kHPsR-298" value="metodo_pago" style="ellipse;whiteSpace=wrap;html=1;fillColor=#ffcccc;strokeColor=#36393d;" parent="1" vertex="1">
          <mxGeometry x="1497.88" y="35" width="90" height="35" as="geometry" />
        </mxCell>
        <mxCell id="rqDRrIek9EEaIk5kHPsR-299" value="status" style="ellipse;whiteSpace=wrap;html=1;fillColor=#ffcccc;strokeColor=#36393d;" parent="1" vertex="1">
          <mxGeometry x="1582.88" y="17.5" width="50" height="30" as="geometry" />
        </mxCell>
        <mxCell id="rqDRrIek9EEaIk5kHPsR-300" value="creado" style="ellipse;whiteSpace=wrap;html=1;fillColor=#ffcccc;strokeColor=#36393d;" parent="1" vertex="1">
          <mxGeometry x="1638.25" y="52.5" width="58" height="27.5" as="geometry" />
        </mxCell>
        <mxCell id="rqDRrIek9EEaIk5kHPsR-301" value="modificado" style="ellipse;whiteSpace=wrap;html=1;fillColor=#ffcccc;strokeColor=#36393d;" parent="1" vertex="1">
          <mxGeometry x="1660" y="97.5" width="70" height="30" as="geometry" />
        </mxCell>
        <mxCell id="rqDRrIek9EEaIk5kHPsR-309" value="1" style="edgeStyle=orthogonalEdgeStyle;rounded=0;orthogonalLoop=1;jettySize=auto;html=1;entryX=0.5;entryY=1;entryDx=0;entryDy=0;" parent="1" source="rqDRrIek9EEaIk5kHPsR-308" target="rqDRrIek9EEaIk5kHPsR-237" edge="1">
          <mxGeometry relative="1" as="geometry" />
        </mxCell>
        <mxCell id="rqDRrIek9EEaIk5kHPsR-310" value="1" style="edgeStyle=orthogonalEdgeStyle;rounded=0;orthogonalLoop=1;jettySize=auto;html=1;entryX=1;entryY=0.75;entryDx=0;entryDy=0;" parent="1" source="rqDRrIek9EEaIk5kHPsR-308" target="rqDRrIek9EEaIk5kHPsR-162" edge="1">
          <mxGeometry relative="1" as="geometry">
            <Array as="points">
              <mxPoint x="1180" y="171" />
              <mxPoint x="1180" y="122" />
            </Array>
          </mxGeometry>
        </mxCell>
        <mxCell id="rqDRrIek9EEaIk5kHPsR-308" value="Tiene" style="rhombus;whiteSpace=wrap;html=1;fillColor=#cce5ff;strokeColor=#36393d;" parent="1" vertex="1">
          <mxGeometry x="1235.13" y="142.5" width="69" height="57.5" as="geometry" />
        </mxCell>
        <mxCell id="rqDRrIek9EEaIk5kHPsR-318" style="edgeStyle=orthogonalEdgeStyle;rounded=0;orthogonalLoop=1;jettySize=auto;html=1;entryX=1;entryY=0.5;entryDx=0;entryDy=0;" parent="1" source="rqDRrIek9EEaIk5kHPsR-311" target="rqDRrIek9EEaIk5kHPsR-312" edge="1">
          <mxGeometry relative="1" as="geometry" />
        </mxCell>
        <mxCell id="rqDRrIek9EEaIk5kHPsR-320" style="edgeStyle=orthogonalEdgeStyle;rounded=0;orthogonalLoop=1;jettySize=auto;html=1;entryX=1;entryY=0.5;entryDx=0;entryDy=0;" parent="1" source="rqDRrIek9EEaIk5kHPsR-311" target="rqDRrIek9EEaIk5kHPsR-313" edge="1">
          <mxGeometry relative="1" as="geometry" />
        </mxCell>
        <mxCell id="rqDRrIek9EEaIk5kHPsR-321" style="edgeStyle=orthogonalEdgeStyle;rounded=0;orthogonalLoop=1;jettySize=auto;html=1;entryX=0.5;entryY=0;entryDx=0;entryDy=0;" parent="1" source="rqDRrIek9EEaIk5kHPsR-311" target="rqDRrIek9EEaIk5kHPsR-314" edge="1">
          <mxGeometry relative="1" as="geometry" />
        </mxCell>
        <mxCell id="rqDRrIek9EEaIk5kHPsR-311" value="PAGO" style="rounded=0;whiteSpace=wrap;html=1;fillColor=#cdeb8b;strokeColor=#36393d;" parent="1" vertex="1">
          <mxGeometry x="-30" y="192.5" width="97" height="30" as="geometry" />
        </mxCell>
        <mxCell id="rqDRrIek9EEaIk5kHPsR-312" value="id_pago" style="ellipse;whiteSpace=wrap;html=1;fillColor=#ffcccc;strokeColor=#36393d;" parent="1" vertex="1">
          <mxGeometry x="-50" y="125" width="50" height="37.5" as="geometry" />
        </mxCell>
        <mxCell id="rqDRrIek9EEaIk5kHPsR-313" value="id_cliente" style="ellipse;whiteSpace=wrap;html=1;fillColor=#ffcccc;strokeColor=#36393d;" parent="1" vertex="1">
          <mxGeometry x="-117.5" y="147.5" width="60" height="30" as="geometry" />
        </mxCell>
        <mxCell id="rqDRrIek9EEaIk5kHPsR-314" value="metodo_pago" style="ellipse;whiteSpace=wrap;html=1;fillColor=#ffcccc;strokeColor=#36393d;" parent="1" vertex="1">
          <mxGeometry x="-139.9999999999999" y="212.5" width="90" height="35" as="geometry" />
        </mxCell>
        <mxCell id="rqDRrIek9EEaIk5kHPsR-315" value="creado" style="ellipse;whiteSpace=wrap;html=1;fillColor=#ffcccc;strokeColor=#36393d;" parent="1" vertex="1">
          <mxGeometry x="-125" y="265" width="75" height="35" as="geometry" />
        </mxCell>
        <mxCell id="rqDRrIek9EEaIk5kHPsR-316" value="modificado" style="ellipse;whiteSpace=wrap;html=1;fillColor=#ffcccc;strokeColor=#36393d;" parent="1" vertex="1">
          <mxGeometry x="-90" y="300" width="77.5" height="35" as="geometry" />
        </mxCell>
        <mxCell id="rqDRrIek9EEaIk5kHPsR-324" value="M" style="edgeStyle=orthogonalEdgeStyle;rounded=0;orthogonalLoop=1;jettySize=auto;html=1;entryX=1;entryY=1;entryDx=0;entryDy=0;" parent="1" source="rqDRrIek9EEaIk5kHPsR-317" target="rqDRrIek9EEaIk5kHPsR-311" edge="1">
          <mxGeometry relative="1" as="geometry" />
        </mxCell>
        <mxCell id="rqDRrIek9EEaIk5kHPsR-325" value="1" style="edgeStyle=orthogonalEdgeStyle;rounded=0;orthogonalLoop=1;jettySize=auto;html=1;entryX=0;entryY=0.75;entryDx=0;entryDy=0;" parent="1" source="rqDRrIek9EEaIk5kHPsR-317" target="9Flou8zlX_ZpzNd3vt44-1" edge="1">
          <mxGeometry relative="1" as="geometry" />
        </mxCell>
        <mxCell id="rqDRrIek9EEaIk5kHPsR-317" value="Contiene" style="rhombus;whiteSpace=wrap;html=1;fillColor=#cce5ff;strokeColor=#36393d;" parent="1" vertex="1">
          <mxGeometry x="85" y="247.5" width="87.5" height="65" as="geometry" />
        </mxCell>
        <mxCell id="rqDRrIek9EEaIk5kHPsR-322" style="edgeStyle=orthogonalEdgeStyle;rounded=0;orthogonalLoop=1;jettySize=auto;html=1;entryX=1.002;entryY=0.328;entryDx=0;entryDy=0;entryPerimeter=0;" parent="1" source="rqDRrIek9EEaIk5kHPsR-311" target="rqDRrIek9EEaIk5kHPsR-315" edge="1">
          <mxGeometry relative="1" as="geometry">
            <Array as="points">
              <mxPoint x="-30" y="276" />
            </Array>
          </mxGeometry>
        </mxCell>
        <mxCell id="rqDRrIek9EEaIk5kHPsR-323" style="edgeStyle=orthogonalEdgeStyle;rounded=0;orthogonalLoop=1;jettySize=auto;html=1;entryX=0.951;entryY=0.449;entryDx=0;entryDy=0;entryPerimeter=0;" parent="1" source="rqDRrIek9EEaIk5kHPsR-311" target="rqDRrIek9EEaIk5kHPsR-316" edge="1">
          <mxGeometry relative="1" as="geometry" />
        </mxCell>
        <mxCell id="rqDRrIek9EEaIk5kHPsR-326" value="id_producto_devolucion" style="ellipse;whiteSpace=wrap;html=1;fillColor=#ffcccc;strokeColor=#36393d;" parent="1" vertex="1">
          <mxGeometry x="1342.38" y="281.88" width="137.75" height="46.25" as="geometry" />
        </mxCell>
        <mxCell id="rqDRrIek9EEaIk5kHPsR-327" value="id_producto" style="ellipse;whiteSpace=wrap;html=1;fillColor=#ffcccc;strokeColor=#36393d;" parent="1" vertex="1">
          <mxGeometry x="1415.13" y="227.5" width="80" height="32.5" as="geometry" />
        </mxCell>
        <mxCell id="rqDRrIek9EEaIk5kHPsR-328" value="descripcion" style="ellipse;whiteSpace=wrap;html=1;fillColor=#ffcccc;strokeColor=#36393d;" parent="1" vertex="1">
          <mxGeometry x="1507.88" y="217.5" width="80" height="32.5" as="geometry" />
        </mxCell>
        <mxCell id="rqDRrIek9EEaIk5kHPsR-329" value="status" style="ellipse;whiteSpace=wrap;html=1;fillColor=#ffcccc;strokeColor=#36393d;" parent="1" vertex="1">
          <mxGeometry x="1602.63" y="215" width="50" height="30" as="geometry" />
        </mxCell>
        <mxCell id="rqDRrIek9EEaIk5kHPsR-330" value="solicitado" style="ellipse;whiteSpace=wrap;html=1;fillColor=#ffcccc;strokeColor=#36393d;" parent="1" vertex="1">
          <mxGeometry x="1660" y="237.5" width="75" height="35" as="geometry" />
        </mxCell>
        <mxCell id="rqDRrIek9EEaIk5kHPsR-331" value="creado" style="ellipse;whiteSpace=wrap;html=1;fillColor=#ffcccc;strokeColor=#36393d;" parent="1" vertex="1">
          <mxGeometry x="1720" y="280" width="65" height="35" as="geometry" />
        </mxCell>
        <mxCell id="rqDRrIek9EEaIk5kHPsR-332" value="modificado" style="ellipse;whiteSpace=wrap;html=1;fillColor=#ffcccc;strokeColor=#36393d;" parent="1" vertex="1">
          <mxGeometry x="1743.75" y="325" width="65" height="35" as="geometry" />
        </mxCell>
        <mxCell id="rqDRrIek9EEaIk5kHPsR-341" value="M" style="edgeStyle=orthogonalEdgeStyle;rounded=0;orthogonalLoop=1;jettySize=auto;html=1;" parent="1" source="rqDRrIek9EEaIk5kHPsR-340" target="rqDRrIek9EEaIk5kHPsR-239" edge="1">
          <mxGeometry relative="1" as="geometry" />
        </mxCell>
        <mxCell id="rqDRrIek9EEaIk5kHPsR-340" value="Tiene" style="rhombus;whiteSpace=wrap;html=1;fillColor=#cce5ff;strokeColor=#36393d;" parent="1" vertex="1">
          <mxGeometry x="1480.13" y="425" width="70" height="62.5" as="geometry" />
        </mxCell>
        <mxCell id="rqDRrIek9EEaIk5kHPsR-342" value="1" style="edgeStyle=orthogonalEdgeStyle;rounded=0;orthogonalLoop=1;jettySize=auto;html=1;entryX=0.899;entryY=0.063;entryDx=0;entryDy=0;entryPerimeter=0;" parent="1" source="rqDRrIek9EEaIk5kHPsR-340" target="rqDRrIek9EEaIk5kHPsR-110" edge="1">
          <mxGeometry relative="1" as="geometry" />
        </mxCell>
        <mxCell id="dX_XakJwU45S215maQ5z-1" value="id_nacional" style="ellipse;whiteSpace=wrap;html=1;fillColor=#ffcccc;strokeColor=#36393d;" vertex="1" parent="1">
          <mxGeometry x="900" y="-50" width="68.75" height="30" as="geometry" />
        </mxCell>
      </root>
    </mxGraphModel>
  </diagram>
</mxfile>
